SplineFontDB: 3.2
FontName: Borderfont
FullName: Borderfont
FamilyName: Borderfont
Weight: Regular
Copyright: Copyright (c) 2024, Myles.Zhang27
UComments: "2024-5-13: Created with FontForge (http://fontforge.org)"
Version: 001.000
ItalicAngle: 0
UnderlinePosition: -100
UnderlineWidth: 50
Ascent: 800
Descent: 200
InvalidEm: 0
LayerCount: 2
Layer: 0 0 "Back" 1
Layer: 1 0 "Fore" 0
XUID: [1021 651 -132743259 5154]
StyleMap: 0x0000
FSType: 0
OS2Version: 0
OS2_WeightWidthSlopeOnly: 0
OS2_UseTypoMetrics: 1
CreationTime: 1715620701
ModificationTime: 1715735246
OS2TypoAscent: 0
OS2TypoAOffset: 1
OS2TypoDescent: 0
OS2TypoDOffset: 1
OS2TypoLinegap: 90
OS2WinAscent: 0
OS2WinAOffset: 1
OS2WinDescent: 0
OS2WinDOffset: 1
HheadAscent: 0
HheadAOffset: 1
HheadDescent: 0
HheadDOffset: 1
MarkAttachClasses: 1
DEI: 91125
Encoding: ISO8859-1
UnicodeInterp: none
NameList: AGL For New Fonts
DisplaySize: -48
AntiAlias: 1
FitToEm: 0
WinInfo: 0 28 12
BeginPrivate: 0
EndPrivate
BeginChars: 256 256

StartChar: exclam
Encoding: 33 33 33
Width: 440
Flags: W
HStem: -90 165<55 110 165 220> -90 55<110 165> 130 55<110 165> 625 55<110 165>
VStem: 55 55<-90 20 185 625> 110 55<-90 -35> 165 55<-90 20 130 680>
LayerCount: 2
Fore
SplineSet
55 130 m 1x38
 55 680 l 1x38
 110 680 l 1
 110 130 l 1x34
 55 130 l 1x38
165 130 m 1x32
 165 680 l 1
 220 680 l 1
 220 130 l 1
 165 130 l 1x32
110 130 m 1x34
 110 185 l 1
 165 185 l 1
 165 130 l 1x3a
 110 130 l 1x34
110 625 m 1
 110 680 l 1x34
 165 680 l 1
 165 625 l 1
 110 625 l 1
55 20 m 1xba
 55 75 l 1
 220 75 l 1
 220 20 l 1
 55 20 l 1xba
165 -90 m 1xb4
 165 20 l 1
 220 20 l 1
 220 -90 l 1xb2
 165 -90 l 1xb4
55 -90 m 1xb8
 55 20 l 1
 110 20 l 1
 110 -90 l 1
 55 -90 l 1xb8
110 -90 m 1
 110 -35 l 1x78
 165 -35 l 1x74
 165 -90 l 1xb4
 110 -90 l 1
EndSplineSet
Validated: 5
EndChar

StartChar: quotedbl
Encoding: 34 34 34
Width: 440
Flags: W
HStem: 405 110<55 165 220 275> 515 110<110 165> 625 55<-55 330>
VStem: -55 55<460 625> 55 110<460 515> 110 55<515 625> 220 55<460 515> 275 55<460 625>
LayerCount: 2
Fore
SplineSet
-55 625 m 1x31
 -55 680 l 1
 330 680 l 1
 330 625 l 1
 -55 625 l 1x31
110 515 m 1x94
 110 625 l 1
 165 625 l 1x54
 165 515 l 1x98
 110 515 l 1x94
-55 460 m 1
 -55 625 l 1
 0 625 l 1x30
 0 460 l 1
 -55 460 l 1
275 460 m 1x32
 275 625 l 1
 330 625 l 1
 330 460 l 1x31
 275 460 l 1x32
220 460 m 1x92
 220 515 l 1
 275 515 l 1
 275 460 l 1
 220 460 l 1x92
55 460 m 1x98
 55 515 l 1
 165 515 l 1
 165 460 l 1
 55 460 l 1x98
-55 405 m 1
 -55 460 l 1
 275 460 l 1x92
 275 405 l 1x91
 -55 405 l 1
EndSplineSet
Validated: 5
EndChar

StartChar: numbersign
Encoding: 35 35 35
Width: 440
Flags: W
HStem: -90 165<0 55 330 385> -35 110<165 220> 240 110<0 55 165 220 330 385> 515 165<0 55 165 220 330 385>
VStem: -55 110<20 75 240 350 515 570> 0 55<-35 20 570 625> 165 55<-35 75 240 350 515 625> 330 55<-35 75 570 625> 385 55<20 240 350 515>
LayerCount: 2
Fore
SplineSet
0 625 m 1x37
 0 680 l 1
 385 680 l 1x3680
 385 625 l 1
 0 625 l 1x37
165 515 m 1
 165 625 l 1
 220 625 l 1
 220 515 l 1
 165 515 l 1
330 515 m 1x33
 330 625 l 1
 385 625 l 1x33
 385 515 l 1x3280
 330 515 l 1x33
0 515 m 1x36
 0 625 l 1
 55 625 l 1x36
 55 515 l 1x3a
 0 515 l 1x36
385 20 m 1x33
 385 570 l 1x33
 440 570 l 1
 440 20 l 1x3280
 385 20 l 1x33
-55 20 m 1x3a
 -55 570 l 1x3a
 0 570 l 1
 0 20 l 1x36
 -55 20 l 1x3a
0 240 m 1x36
 0 350 l 1x36
 55 350 l 1
 55 240 l 1x3a
 0 240 l 1x36
165 240 m 1
 165 350 l 1
 220 350 l 1
 220 240 l 1
 165 240 l 1
330 240 m 1x33
 330 350 l 1x33
 385 350 l 1
 385 240 l 1x3280
 330 240 l 1x33
330 -35 m 1x73
 330 75 l 1
 385 75 l 1xb3
 385 -35 l 1
 330 -35 l 1x73
0 -35 m 1x76
 0 75 l 1xb6
 55 75 l 1xba
 55 -35 l 1
 0 -35 l 1x76
0 -90 m 1
 0 -35 l 1
 385 -35 l 1x77
 385 -90 l 1xb280
 0 -90 l 1
165 -35 m 1
 165 75 l 1
 220 75 l 1
 220 -35 l 1
 165 -35 l 1
EndSplineSet
Validated: 5
EndChar

StartChar: quotesingle
Encoding: 39 39 39
Width: 440
Flags: W
HStem: 405 110<220 275> 625 55<110 330>
VStem: 110 55<460 625> 220 55<460 515> 275 55<460 625>
LayerCount: 2
Fore
SplineSet
110 625 m 1xe8
 110 680 l 1
 330 680 l 1
 330 625 l 1
 110 625 l 1xe8
110 460 m 1
 110 625 l 1
 165 625 l 1
 165 460 l 1
 110 460 l 1
275 460 m 1xf0
 275 625 l 1
 330 625 l 1
 330 460 l 1xe8
 275 460 l 1xf0
220 460 m 1xf0
 220 515 l 1
 275 515 l 1
 275 460 l 1
 220 460 l 1xf0
110 405 m 1
 110 460 l 1
 330 460 l 1
 330 405 l 1xe8
 110 405 l 1
EndSplineSet
Validated: 5
EndChar

StartChar: parenleft
Encoding: 40 40 40
Width: 440
Flags: W
HStem: -200 55<55 385> -35 55<275 330> 570 55<275 330> 735 55<55 385>
VStem: 55 55<-145 735> 220 110<-35 20 570 625> 330 55<-145 20 570 735>
LayerCount: 2
Fore
SplineSet
55 735 m 1xfa
 55 790 l 1
 385 790 l 1
 385 735 l 1
 55 735 l 1xfa
55 -200 m 1
 55 -145 l 1
 385 -145 l 1
 385 -200 l 1
 55 -200 l 1
55 -145 m 1
 55 735 l 1
 110 735 l 1
 110 -145 l 1
 55 -145 l 1
330 570 m 1xfc
 330 735 l 1
 385 735 l 1
 385 570 l 1xfa
 330 570 l 1xfc
330 -145 m 1
 330 20 l 1xfc
 385 20 l 1
 385 -145 l 1
 330 -145 l 1
275 -35 m 1
 275 20 l 1
 330 20 l 1
 330 -35 l 1
 275 -35 l 1
275 570 m 1
 275 625 l 1
 330 625 l 1
 330 570 l 1
 275 570 l 1
220 -35 m 1
 220 625 l 1
 275 625 l 1
 275 -35 l 1
 220 -35 l 1
EndSplineSet
Validated: 5
EndChar

StartChar: parenright
Encoding: 41 41 41
Width: 440
Flags: W
HStem: -200 55<55 385> -35 55<110 165> 570 55<110 165> 735 55<55 330> 735 5<330 385>
VStem: 55 55<-145 20 570 735> 110 55<-35 20 570 625> 165 55<-35 625> 330 55<-140 740>
LayerCount: 2
Fore
SplineSet
55 735 m 1xf480
 55 790 l 1
 385 790 l 1xf480
 385 735 l 1xec80
 55 735 l 1xf480
55 -200 m 1
 55 -145 l 1
 385 -145 l 1
 385 -200 l 1
 55 -200 l 1
330 -140 m 1
 330 740 l 1
 385 740 l 1xe880
 385 -140 l 1
 330 -140 l 1
55 570 m 1xf480
 55 735 l 1
 110 735 l 1
 110 570 l 1
 55 570 l 1xf480
55 -145 m 1
 55 20 l 1
 110 20 l 1
 110 -145 l 1
 55 -145 l 1
110 -35 m 1
 110 20 l 1xe480
 165 20 l 1
 165 -35 l 1xe280
 110 -35 l 1
110 570 m 1
 110 625 l 1xe480
 165 625 l 1
 165 570 l 1xe280
 110 570 l 1
165 -35 m 1xe280
 165 625 l 1xe280
 220 625 l 1
 220 -35 l 1xe180
 165 -35 l 1xe280
EndSplineSet
Validated: 5
EndChar

StartChar: comma
Encoding: 44 44 44
Width: 440
Flags: W
HStem: -145 55<55 110> -90 110<110 165> -35 55<55 110>
VStem: 55 55<-145 -90 -35 20> 110 55<-90 20>
LayerCount: 2
Fore
SplineSet
110 -90 m 1x90
 110 20 l 1x50
 165 20 l 1
 165 -90 l 1x48
 110 -90 l 1x90
55 -35 m 1x30
 55 20 l 1x30
 110 20 l 1x50
 110 -35 l 1
 55 -35 l 1x30
55 -145 m 1x90
 55 -90 l 1
 110 -90 l 1
 110 -145 l 1
 55 -145 l 1x90
EndSplineSet
Validated: 5
EndChar

StartChar: hyphen
Encoding: 45 45 45
Width: 440
Flags: W
HStem: 185 55<-55 440> 240 110<-55 0 385 440> 350 55<-55 440>
VStem: -55 55<240 350> 385 55<240 350>
LayerCount: 2
Fore
SplineSet
-55 350 m 1x58
 -55 405 l 1
 440 405 l 1x38
 440 350 l 1
 -55 350 l 1x58
-55 185 m 1x98
 -55 240 l 1
 440 240 l 1
 440 185 l 1
 -55 185 l 1x98
385 240 m 1
 385 350 l 1
 440 350 l 1x58
 440 240 l 1
 385 240 l 1
-55 240 m 1x98
 -55 350 l 1
 0 350 l 1x58
 0 240 l 1
 -55 240 l 1x98
EndSplineSet
Validated: 5
EndChar

StartChar: period
Encoding: 46 46 46
Width: 440
Flags: W
HStem: -90 55<110 165> 20 55<110 165>
VStem: 55 110<-90 -35 20 74> 165 55<-90 75>
LayerCount: 2
Fore
SplineSet
55 -90 m 1xe0
 55 74 l 1
 110 74 l 1
 110 -90 l 1
 55 -90 l 1xe0
165 -90 m 1
 165 75 l 1
 220 75 l 1
 220 -90 l 1xd0
 165 -90 l 1
110 20 m 1
 110 75 l 1
 165 75 l 1xd0
 165 20 l 1xe0
 110 20 l 1
110 -90 m 1
 110 -35 l 1
 165 -35 l 1
 165 -90 l 1xe0
 110 -90 l 1
EndSplineSet
Validated: 5
EndChar

StartChar: slash
Encoding: 47 47 47
Width: 440
Flags: W
HStem: -200 55<0 110> 735 55<275 440>
VStem: -55 110<20 75> 0 110<130 185> 55 110<295 350> 110 55<-200 20 350 460> 165 55<-35 130 515 570> 220 55<75 295 625 735> 275 55<240 460> 330 55<405 570> 385 55<515 735>
LayerCount: 2
Fore
SplineSet
-55 -200 m 1xe0
 -55 75 l 1xe0
 0 75 l 1
 0 -200 l 1xd0
 -55 -200 l 1xe0
0 20 m 1xd0
 0 185 l 1xd0
 55 185 l 1xc8
 55 20 l 1xe0
 0 20 l 1xd0
55 130 m 1xc8
 55 350 l 1xc8
 110 350 l 1xc4
 110 130 l 1xd0
 55 130 l 1xc8
110 295 m 1xc4
 110 515 l 1xc4
 165 515 l 1xc2
 165 295 l 1xc8
 110 295 l 1xc4
165 460 m 1
 165 625 l 1xc2
 220 625 l 1
 220 460 l 1xc1
 165 460 l 1
220 570 m 1
 220 790 l 1xc1
 275 790 l 1
 275 570 l 1xc080
 220 570 l 1
275 735 m 1
 275 790 l 1
 440 790 l 1
 440 735 l 1xc0a0
 275 735 l 1
385 515 m 1xc040
 385 735 l 1
 440 735 l 1
 440 515 l 1xc020
 385 515 l 1xc040
330 405 m 1xc080
 330 570 l 1
 385 570 l 1
 385 405 l 1xc040
 330 405 l 1xc080
275 240 m 1xc1
 275 460 l 1
 330 460 l 1
 330 240 l 1xc080
 275 240 l 1xc1
220 75 m 1xc2
 220 295 l 1
 275 295 l 1
 275 75 l 1xc1
 220 75 l 1xc2
165 -35 m 1xc4
 165 130 l 1
 220 130 l 1
 220 -35 l 1xc2
 165 -35 l 1xc4
110 -200 m 1xc4
 110 20 l 1
 165 20 l 1
 165 -200 l 1
 110 -200 l 1xc4
0 -200 m 1xd0
 0 -145 l 1xd0
 110 -145 l 1
 110 -200 l 1xc4
 0 -200 l 1xd0
EndSplineSet
Validated: 5
EndChar

StartChar: zero
Encoding: 48 48 48
Width: 440
Flags: W
HStem: -90 55<-55 440> 625 55<-55 440>
VStem: -55 55<-35 625> 165 55<186 405> 385 55<-35 625>
CounterMasks: 1 38
LayerCount: 2
Fore
SplineSet
-55 625 m 1
 -55 680 l 1
 440 680 l 1
 440 625 l 1
 -55 625 l 1
-55 -90 m 1
 -55 -35 l 1
 440 -35 l 1
 440 -90 l 1
 -55 -90 l 1
385 -35 m 1
 385 625 l 1
 440 625 l 1
 440 -35 l 1
 385 -35 l 1
-55 -35 m 1
 -55 625 l 1
 0 625 l 1
 0 -35 l 1
 -55 -35 l 1
165 186 m 1
 165 405 l 1
 220 405 l 1
 220 186 l 1
 165 186 l 1
EndSplineSet
Validated: 5
EndChar

StartChar: one
Encoding: 49 49 49
Width: 440
Flags: W
HStem: -90 21G<-55 440> -90 21G<-55 440> 130 55<0 165 275 440> 625 55<0 330>
VStem: -55 55<-35 130 460 625> 110 55<185 405> 275 55<185 625> 385 55<-35 130>
LayerCount: 2
Fore
SplineSet
-55 625 m 1x3f
 -55 680 l 1
 330 680 l 1
 330 625 l 1
 -55 625 l 1x3f
-55 460 m 1
 -55 625 l 1
 0 625 l 1
 0 460 l 1
 -55 460 l 1
-55 405 m 1
 -55 460 l 1
 165 460 l 1
 165 405 l 1
 -55 405 l 1
275 185 m 1
 275 625 l 1
 330 625 l 1
 330 185 l 1
 275 185 l 1
110 185 m 1
 110 405 l 1
 165 405 l 1
 165 185 l 1
 110 185 l 1
275 130 m 1
 275 185 l 1
 440 185 l 1
 440 130 l 1
 275 130 l 1
-55 130 m 1
 -55 185 l 1
 165 185 l 1
 165 130 l 1
 -55 130 l 1
385 -35 m 1
 385 130 l 1
 440 130 l 1
 440 -35 l 1
 385 -35 l 1
-55 -35 m 1
 -55 130 l 1
 0 130 l 1
 0 -35 l 1
 -55 -35 l 1
-55 -90 m 1xbf
 -55 -35 l 1
 440 -35 l 1
 440 -90 l 1
 -55 -90 l 1xbf
EndSplineSet
Validated: 5
EndChar

StartChar: two
Encoding: 50 50 50
Width: 440
Flags: W
HStem: -90 55<-55 440> 130 55<165 220> 185 55<165 385> 350 110<165 220> 350 55<0 165> 625 55<-55 440>
VStem: -55 55<-35 625> 165 55<130 185 405 460> 385 55<-35 625>
CounterMasks: 1 0380
LayerCount: 2
Fore
SplineSet
-55 625 m 1x8780
 -55 680 l 1
 440 680 l 1
 440 625 l 1
 -55 625 l 1x8780
-55 -90 m 1
 -55 -35 l 1
 440 -35 l 1
 440 -90 l 1
 -55 -90 l 1
385 -35 m 1
 385 625 l 1
 440 625 l 1
 440 -35 l 1
 385 -35 l 1
-55 -35 m 1
 -55 625 l 1
 0 625 l 1
 0 -35 l 1
 -55 -35 l 1
0 350 m 1x8f80
 0 405 l 1
 220 405 l 1x8f80
 220 350 l 1x9780
 0 350 l 1x8f80
165 405 m 1
 165 460 l 1
 220 460 l 1x9780
 220 405 l 1
 165 405 l 1
165 185 m 1xc780
 165 240 l 1
 385 240 l 1
 385 185 l 1xa780
 165 185 l 1xc780
165 130 m 1xc780
 165 185 l 1
 220 185 l 1
 220 130 l 1
 165 130 l 1xc780
EndSplineSet
Validated: 5
EndChar

StartChar: three
Encoding: 51 51 51
Width: 440
Flags: W
HStem: -90 55<-55 440> 185 55<0 220> 350 55<0 220> 625 55<-55 440>
VStem: -55 55<-35 625> 385 55<-35 625>
LayerCount: 2
Fore
SplineSet
-55 625 m 1
 -55 680 l 1
 440 680 l 1
 440 625 l 1
 -55 625 l 1
-55 -90 m 1
 -55 -35 l 1
 440 -35 l 1
 440 -90 l 1
 -55 -90 l 1
385 -35 m 1
 385 625 l 1
 440 625 l 1
 440 -35 l 1
 385 -35 l 1
-55 -35 m 1
 -55 625 l 1
 0 625 l 1
 0 -35 l 1
 -55 -35 l 1
0 350 m 1
 0 405 l 1
 220 405 l 1
 220 350 l 1
 0 350 l 1
0 185 m 1
 0 240 l 1
 220 240 l 1
 220 185 l 1
 0 185 l 1
EndSplineSet
Validated: 5
EndChar

StartChar: four
Encoding: 52 52 52
Width: 440
Flags: W
HStem: -90 55<165 440> 240 55<0 220> 625 55<-55 440>
VStem: -55 55<240 625> 165 55<-35 240 405 625> 385 55<-35 625>
CounterMasks: 1 1c
LayerCount: 2
Fore
SplineSet
-55 625 m 1
 -55 680 l 1
 440 680 l 1
 440 625 l 1
 -55 625 l 1
165 -90 m 1
 165 -35 l 1
 440 -35 l 1
 440 -90 l 1
 165 -90 l 1
385 -35 m 1
 385 625 l 1
 440 625 l 1
 440 -35 l 1
 385 -35 l 1
-55 240 m 1
 -55 625 l 1
 0 625 l 1
 0 240 l 1
 -55 240 l 1
0 240 m 1
 0 295 l 1
 220 295 l 1
 220 240 l 1
 0 240 l 1
165 -35 m 1
 165 240 l 1
 220 240 l 1
 220 -35 l 1
 165 -35 l 1
165 405 m 1
 165 625 l 1
 220 625 l 1
 220 405 l 1
 165 405 l 1
EndSplineSet
Validated: 5
EndChar

StartChar: five
Encoding: 53 53 53
Width: 440
Flags: W
HStem: -90 55<-55 440> 130 55<0 165> 295 110<165 220> 350 55<220 385> 625 55<-55 440>
VStem: -55 55<-35 625> 165 55<295 350> 385 55<-35 625>
CounterMasks: 1 07
LayerCount: 2
Fore
SplineSet
-55 625 m 1xcf
 -55 680 l 1
 440 680 l 1
 440 625 l 1
 -55 625 l 1xcf
-55 -90 m 1
 -55 -35 l 1
 440 -35 l 1
 440 -90 l 1
 -55 -90 l 1
385 -35 m 1
 385 625 l 1
 440 625 l 1
 440 -35 l 1
 385 -35 l 1
-55 -35 m 1
 -55 625 l 1
 0 625 l 1
 0 -35 l 1
 -55 -35 l 1
0 130 m 1
 0 185 l 1
 165 185 l 1
 165 130 l 1
 0 130 l 1
165 350 m 1xdf
 165 405 l 1xef
 385 405 l 1
 385 350 l 1
 165 350 l 1xdf
165 295 m 1
 165 350 l 1
 220 350 l 1xdf
 220 295 l 1
 165 295 l 1
EndSplineSet
Validated: 5
EndChar

StartChar: six
Encoding: 54 54 54
Width: 440
Flags: W
HStem: -90 55<-55 440> 130 110<165 220> 350 110<165 220> 350 55<220 385> 625 55<-55 440>
VStem: -55 55<-35 625> 165 55<130 240 405 460> 385 55<-35 625>
CounterMasks: 1 07
LayerCount: 2
Fore
SplineSet
-55 625 m 1xcf
 -55 680 l 1
 440 680 l 1
 440 625 l 1
 -55 625 l 1xcf
-55 -90 m 1
 -55 -35 l 1
 440 -35 l 1
 440 -90 l 1
 -55 -90 l 1
385 -35 m 1
 385 625 l 1
 440 625 l 1
 440 -35 l 1
 385 -35 l 1
-55 -35 m 1
 -55 625 l 1
 0 625 l 1
 0 -35 l 1
 -55 -35 l 1
165 350 m 1xef
 165 405 l 1
 385 405 l 1
 385 350 l 1xdf
 165 350 l 1xef
165 405 m 1
 165 460 l 1
 220 460 l 1xef
 220 405 l 1
 165 405 l 1
165 130 m 1
 165 240 l 1
 220 240 l 1
 220 130 l 1
 165 130 l 1
EndSplineSet
Validated: 5
EndChar

StartChar: seven
Encoding: 55 55 55
Width: 440
Flags: W
HStem: -90 55<0 275> 350 55<0 110 165 220> 625 55<-55 440>
VStem: -55 55<350 625> 0 110<130 185> 0 55<-35 130> 55 110<240 295> 110 55<295 350> 220 55<-35 75> 275 55<130 240> 330 55<185 350> 385 55<295 625>
LayerCount: 2
Fore
SplineSet
-55 625 m 1xf010
 -55 680 l 1
 440 680 l 1
 440 625 l 1
 -55 625 l 1xf010
0 -90 m 1xe440
 0 -35 l 1
 275 -35 l 1xe480
 275 -90 l 1
 0 -90 l 1xe440
385 295 m 1xe020
 385 625 l 1
 440 625 l 1
 440 295 l 1xe010
 385 295 l 1xe020
0 -35 m 1xe4
 0 185 l 1xe8
 55 185 l 1xe2
 55 -35 l 1
 0 -35 l 1xe4
55 130 m 1xe4
 55 295 l 1xe2
 110 295 l 1xe1
 110 130 l 1xe8
 55 130 l 1xe4
-55 350 m 1xf0
 -55 625 l 1
 0 625 l 1
 0 350 l 1
 -55 350 l 1xf0
0 350 m 1
 0 405 l 1
 220 405 l 1
 220 350 l 1xf080
 0 350 l 1
110 240 m 1xe1
 110 350 l 1
 165 350 l 1xe1
 165 240 l 1xe2
 110 240 l 1xe1
220 -35 m 1xe080
 220 130 l 1xe080
 275 130 l 1xe040
 275 -35 l 1
 220 -35 l 1xe080
330 185 m 1xe040
 330 350 l 1
 385 350 l 1
 385 185 l 1xe020
 330 185 l 1xe040
275 75 m 1xe0a0
 275 240 l 1
 330 240 l 1xe040
 330 75 l 1
 275 75 l 1xe0a0
EndSplineSet
Validated: 5
EndChar

StartChar: eight
Encoding: 56 56 56
Width: 440
Flags: W
HStem: -90 55<0 385> -35 55<0 55 330 385> 130 110<165 220> 295 55<0 55 330 385> 405 110<165 220> 570 55<0 55 330 385> 625 55<0 385>
VStem: -55 55<-35 625> 0 55<-35 20 295 350 570 625> 165 55<130 240 405 515> 330 55<-35 20 295 350 570 625> 385 55<-35 625>
LayerCount: 2
Fore
SplineSet
0 625 m 1x3d60
 0 680 l 1
 385 680 l 1x3ad0
 385 625 l 1
 0 625 l 1x3d60
0 -90 m 1xb8d0
 0 -35 l 1
 385 -35 l 1xb960
 385 -90 l 1
 0 -90 l 1xb8d0
385 -35 m 1
 385 625 l 1xbc60
 440 625 l 1
 440 -35 l 1x7a50
 385 -35 l 1
-55 -35 m 1x7940
 -55 625 l 1x7b40
 0 625 l 1
 0 -35 l 1xbd40
 -55 -35 l 1x7940
0 -35 m 1xb940
 0 20 l 1x7940
 55 20 l 1x78c0
 55 -35 l 1xb8c0
 0 -35 l 1xb940
330 -35 m 1xb860
 330 20 l 1
 385 20 l 1x7860
 385 -35 l 1
 330 -35 l 1xb860
330 295 m 1
 330 350 l 1
 385 350 l 1
 385 295 l 1
 330 295 l 1
0 295 m 1x3940
 0 350 l 1x3940
 55 350 l 1
 55 295 l 1x38c0
 0 295 l 1x3940
330 570 m 1x3c60
 330 625 l 1
 385 625 l 1
 385 570 l 1
 330 570 l 1x3c60
0 570 m 1x3d40
 0 625 l 1x3d40
 55 625 l 1
 55 570 l 1x3cc0
 0 570 l 1x3d40
165 405 m 1
 165 515 l 1
 220 515 l 1
 220 405 l 1
 165 405 l 1
165 130 m 1
 165 240 l 1
 220 240 l 1
 220 130 l 1
 165 130 l 1
EndSplineSet
Validated: 5
EndChar

StartChar: nine
Encoding: 57 57 57
Width: 440
Flags: W
HStem: -90 55<-55 440> 130 110<165 220> 185 55<0 165> 350 110<165 220> 625 55<-55 440>
VStem: -55 55<-35 625> 165 55<130 185 350 460> 385 55<-35 625>
CounterMasks: 1 07
LayerCount: 2
Fore
SplineSet
-55 625 m 1x9f
 -55 680 l 1
 440 680 l 1
 440 625 l 1
 -55 625 l 1x9f
-55 -90 m 1
 -55 -35 l 1
 440 -35 l 1
 440 -90 l 1
 -55 -90 l 1
385 -35 m 1
 385 625 l 1
 440 625 l 1
 440 -35 l 1
 385 -35 l 1
-55 -35 m 1
 -55 625 l 1
 0 625 l 1
 0 -35 l 1
 -55 -35 l 1
165 350 m 1
 165 460 l 1
 220 460 l 1
 220 350 l 1
 165 350 l 1
0 185 m 1xbf
 0 240 l 1xbf
 220 240 l 1xdf
 220 185 l 1
 0 185 l 1xbf
165 130 m 1xdf
 165 185 l 1
 220 185 l 1xbf
 220 130 l 1
 165 130 l 1xdf
EndSplineSet
Validated: 5
EndChar

StartChar: colon
Encoding: 58 58 58
Width: 440
Flags: W
HStem: 75 55<109.5 219.5> 130 55<164.5 219.5> 185 55<109.5 219.5> 350 55<110.7 220> 405 55<165.3 220> 460 55<110.7 220>
VStem: 56 53.7002<130 185 350 515> 110.7 109.3<350 405 460 515> 164.5 55<130 185 405 460>
LayerCount: 2
Fore
SplineSet
109.5 185 m 1x2280
 109.5 240 l 1
 219.5 240 l 1x2280
 219.5 185 l 1x4280
 109.5 185 l 1x2280
109.5 75 m 1x8280
 109.5 130 l 1
 219.5 130 l 1
 219.5 75 l 1
 109.5 75 l 1x8280
164.5 130 m 1
 164.5 185 l 1
 219.5 185 l 1x4280
 219.5 130 l 1
 164.5 130 l 1
55 350 m 1x16
 55 515 l 1
 109.700195312 515 l 1
 109.700195312 350 l 1
 55 350 l 1x16
55 75 m 1xa2
 55 240 l 1
 109.700195312 240 l 1
 109.700195312 75 l 1
 55 75 l 1xa2
110.700195312 460 m 1x07
 110.700195312 515 l 1
 220 515 l 1x07
 220 460 l 1x0b
 110.700195312 460 l 1x07
110.700195312 350 m 1x13
 110.700195312 405 l 1
 220 405 l 1
 220 350 l 1
 110.700195312 350 l 1x13
165.299804688 405 m 1
 165.299804688 460 l 1
 220 460 l 1x0b
 220 405 l 1
 165.299804688 405 l 1
56 350 m 1x17
 56 515 l 1
 110.700195312 515 l 1
 110.700195312 350 l 1
 56 350 l 1x17
EndSplineSet
Validated: 5
EndChar

StartChar: equal
Encoding: 61 61 61
Width: 440
Flags: W
HStem: 20 55<-55 440> 75 165<-55 0 385 440> 295 165<-55 0 385 440> 460 55<-55 440>
VStem: -55 55<75 185 350 460> 385 55<75 185 350 460>
LayerCount: 2
Fore
SplineSet
-55 460 m 1x2c
 -55 515 l 1
 440 515 l 1x1c
 440 460 l 1
 -55 460 l 1x2c
-55 295 m 1x2c
 -55 350 l 1
 440 350 l 1
 440 295 l 1
 -55 295 l 1x2c
-55 185 m 1
 -55 240 l 1
 440 240 l 1x4c
 440 185 l 1
 -55 185 l 1
-55 20 m 1x8c
 -55 75 l 1
 440 75 l 1
 440 20 l 1
 -55 20 l 1x8c
385 350 m 1
 385 460 l 1
 440 460 l 1x2c
 440 350 l 1
 385 350 l 1
-55 350 m 1
 -55 460 l 1
 0 460 l 1
 0 350 l 1
 -55 350 l 1
-55 75 m 1x8c
 -55 185 l 1
 0 185 l 1
 0 75 l 1
 -55 75 l 1x8c
385 75 m 1
 385 185 l 1
 440 185 l 1
 440 75 l 1
 385 75 l 1
EndSplineSet
Validated: 5
EndChar

StartChar: question
Encoding: 63 63 63
Width: 440
Flags: W
HStem: -90 55<165 220> 20 55<165 220> 130 55<110 330> 185 110<275 330> 240 55<330 385> 405 55<0 55 110 220> 625 55<-55 440>
VStem: -55 55<405 625> 55 55<185 405> 110 110<-90 -35 20 75> 220 55<-90 75> 275 55<185 295> 330 55<240 295> 385 55<240 625>
LayerCount: 2
Fore
SplineSet
-55 625 m 1xc704
 -55 680 l 1
 440 680 l 1
 440 625 l 1
 -55 625 l 1xc704
385 240 m 1xcf08
 385 625 l 1
 440 625 l 1
 440 240 l 1xcf04
 385 240 l 1xcf08
-55 405 m 1
 -55 625 l 1
 0 625 l 1
 0 405 l 1
 -55 405 l 1
0 405 m 1
 0 460 l 1
 220 460 l 1
 220 405 l 1xc720
 0 405 l 1
55 130 m 1xe780
 55 405 l 1
 110 405 l 1xe780
 110 130 l 1xe740
 55 130 l 1xe780
110 130 m 1xe748
 110 185 l 1
 330 185 l 1xe790
 330 130 l 1
 110 130 l 1xe748
275 185 m 1
 275 295 l 1
 330 295 l 1xd710
 330 185 l 1
 275 185 l 1
330 240 m 1xcf10
 330 295 l 1xd710
 385 295 l 1
 385 240 l 1xcf08
 330 240 l 1xcf10
110 -90 m 1xc740
 110 75 l 1
 165 75 l 1
 165 -90 l 1
 110 -90 l 1xc740
220 -90 m 1
 220 75 l 1xc740
 275 75 l 1
 275 -90 l 1xc720
 220 -90 l 1
165 20 m 1
 165 75 l 1
 220 75 l 1
 220 20 l 1
 165 20 l 1
165 -90 m 1
 165 -35 l 1
 220 -35 l 1
 220 -90 l 1
 165 -90 l 1
EndSplineSet
Validated: 5
EndChar

StartChar: A
Encoding: 65 65 65
Width: 440
Flags: W
HStem: -90 55<0 385> 625 55<-55 440>
VStem: -55 55<-35 625> 165 55<-35 185 295 460> 385 55<-90 625>
CounterMasks: 1 38
LayerCount: 2
Fore
SplineSet
-55 625 m 1
 -55 680 l 1
 440 680 l 1
 440 625 l 1
 -55 625 l 1
385 -90 m 1
 385 625 l 1
 440 625 l 1
 440 -90 l 1
 385 -90 l 1
0 -90 m 1
 0 -35 l 1
 385 -35 l 1
 385 -90 l 1
 0 -90 l 1
165 -35 m 1
 165 185 l 1
 220 185 l 1
 220 -35 l 1
 165 -35 l 1
-55 -90 m 1
 -55 680 l 1
 0 680 l 1
 0 -90 l 1
 -55 -90 l 1
165 295 m 1
 165 460 l 1
 220 460 l 1
 220 295 l 1
 165 295 l 1
EndSplineSet
Validated: 5
EndChar

StartChar: B
Encoding: 66 66 66
Width: 440
Flags: W
HStem: -90 55<0 385> 75 55<165 220> 240 55<165 385> 405 110<165 220> 626 54<0 385>
VStem: 165 55<75 130 405 515> 385 55<-90 680>
LayerCount: 2
Fore
SplineSet
-55 -90 m 1
 -55 680 l 1
 0 680 l 1
 0 -90 l 1
 -55 -90 l 1
385 -90 m 1
 385 680 l 1
 440 680 l 1
 440 -90 l 1
 385 -90 l 1
0 -90 m 1
 0 -35 l 1
 385 -35 l 1
 385 -90 l 1
 0 -90 l 1
0 626 m 1
 0 680 l 1
 385 680 l 1
 385 626 l 1
 0 626 l 1
165 405 m 1
 165 515 l 1
 220 515 l 1
 220 405 l 1
 165 405 l 1
165 240 m 1
 165 295 l 1
 385 295 l 1
 385 240 l 1
 165 240 l 1
165 75 m 1
 165 130 l 1
 220 130 l 1
 220 75 l 1
 165 75 l 1
EndSplineSet
Validated: 5
EndChar

StartChar: C
Encoding: 67 67 67
Width: 440
Flags: W
HStem: -90 55<0 385> 240 55<220 385> 625 55<0 385>
VStem: 165 55<185 405> 385 55<-90 680>
LayerCount: 2
Fore
SplineSet
-55 -90 m 1
 -55 680 l 1
 0 680 l 1
 0 -90 l 1
 -55 -90 l 1
385 -90 m 1
 385 680 l 1
 440 680 l 1
 440 -90 l 1
 385 -90 l 1
0 -90 m 1
 0 -35 l 1
 385 -35 l 1
 385 -90 l 1
 0 -90 l 1
165 185 m 1
 165 405 l 1
 220 405 l 1
 220 185 l 1
 165 185 l 1
220 240 m 1
 220 295 l 1
 385 295 l 1
 385 240 l 1
 220 240 l 1
0 625 m 1
 0 680 l 1
 385 680 l 1
 385 625 l 1
 0 625 l 1
EndSplineSet
Validated: 5
EndChar

StartChar: D
Encoding: 68 68 68
Width: 440
Flags: W
HStem: -90 55<-55 385> -35 55<330 440> 570 55<330 440> 625 55<-55 385>
VStem: -55 55<-35 625> 165 55<185 405> 330 110<-35 20 570 625> 385 55<20 570>
LayerCount: 2
Fore
SplineSet
-55 625 m 1x1d
 -55 680 l 1
 385 680 l 1x1d
 385 625 l 1x2d
 -55 625 l 1x1d
330 570 m 1x2e
 330 625 l 1
 440 625 l 1
 440 570 l 1
 330 570 l 1x2e
-55 -90 m 1x8d
 -55 -35 l 1
 385 -35 l 1
 385 -90 l 1
 -55 -90 l 1x8d
330 -35 m 1x8e
 330 20 l 1
 440 20 l 1
 440 -35 l 1x4e
 330 -35 l 1x8e
385 20 m 1x6d
 385 570 l 1x6d
 440 570 l 1
 440 20 l 1x6e
 385 20 l 1x6d
-55 -35 m 1x9c
 -55 625 l 1
 0 625 l 1
 0 -35 l 1
 -55 -35 l 1x9c
165 185 m 1
 165 405 l 1
 220 405 l 1
 220 185 l 1
 165 185 l 1
EndSplineSet
Validated: 5
EndChar

StartChar: E
Encoding: 69 69 69
Width: 441
Flags: W
HStem: -90 55<-54.5 440.5> 185 55<165.5 385.5> 350 55<165.5 385.5> 625.5 55<-55 385.5 440.5 441> 625.5 0.5<385.5 440.5>
VStem: -55 55<-35 625.5> 385.5 55<-90 626>
LayerCount: 2
Fore
SplineSet
-55 625.5 m 1xf6
 -55 680.5 l 1
 441 680.5 l 1
 441 625.5 l 1
 -55 625.5 l 1xf6
385.5 -90 m 1
 385.5 626 l 1
 440.5 626 l 1xee
 440.5 -90 l 1
 385.5 -90 l 1
165.5 350 m 1
 165.5 405 l 1
 385.5 405 l 1
 385.5 350 l 1
 165.5 350 l 1
165.5 185 m 1
 165.5 240 l 1
 385.5 240 l 1
 385.5 185 l 1
 165.5 185 l 1
-54.5 -90 m 1
 -54.5 -35 l 1
 440.5 -35 l 1
 440.5 -90 l 1
 -54.5 -90 l 1
-55 -35 m 1
 -55 680 l 1
 0 680 l 1
 0 -35 l 1
 -55 -35 l 1
EndSplineSet
Validated: 5
EndChar

StartChar: F
Encoding: 70 70 70
Width: 440
Flags: W
HStem: -90 55<-55 165.5> 185 55<166 440> 350 55<166 385> 625 55<0 440>
VStem: -55 55<-35 625> 166 54<-90 185> 385 55<240 625>
LayerCount: 2
Fore
SplineSet
-55 -90 m 1
 -55 680 l 1
 0 680 l 1
 0 -90 l 1
 -55 -90 l 1
0 -90 m 1
 0 -35 l 1
 220 -35 l 1
 220 -90 l 1
 0 -90 l 1
165.5 -35 m 1
 165.5 240 l 1
 220.5 240 l 1
 220.5 -35 l 1
 165.5 -35 l 1
166 -90 m 1
 166 240 l 1
 220 240 l 1
 220 -90 l 1
 166 -90 l 1
220 185 m 1
 220 240 l 1
 440 240 l 1
 440 185 l 1
 220 185 l 1
-55 -90 m 1
 -55 -35 l 1
 165 -35 l 1
 165 -90 l 1
 -55 -90 l 1
-55 -35 m 1
 -55 680 l 1
 0 680 l 1
 0 -35 l 1
 -55 -35 l 1
0 625 m 1
 0 680 l 1
 440 680 l 1
 440 625 l 1
 0 625 l 1
385 240 m 1
 385 625 l 1
 440 625 l 1
 440 240 l 1
 385 240 l 1
166 185 m 1
 166 240 l 1
 440 240 l 1
 440 185 l 1
 166 185 l 1
166 350 m 1
 166 405 l 1
 385 405 l 1
 385 350 l 1
 166 350 l 1
EndSplineSet
Validated: 5
EndChar

StartChar: G
Encoding: 71 71 71
Width: 440
Flags: W
HStem: -90 55<0 440> 130 55<220 275> 295 55<165 385> 405 55<220 385> 625 55<-55 440>
VStem: -55 55<-35 625> 165 55<130 295 350 405> 220 55<130 185> 385 55<-35 350 460 625>
LayerCount: 2
Fore
SplineSet
-55 625 m 1xfc80
 -55 680 l 1
 440 680 l 1
 440 625 l 1
 -55 625 l 1xfc80
-55 -35 m 1
 -55 625 l 1
 0 625 l 1
 0 -35 l 1
 -55 -35 l 1
-55 -90 m 1
 -55 -35 l 1
 440 -35 l 1
 440 -90 l 1
 -55 -90 l 1
385 -35 m 1
 385 350 l 1
 440 350 l 1
 440 -35 l 1
 385 -35 l 1
165 295 m 1xfe80
 165 350 l 1
 385 350 l 1
 385 295 l 1
 165 295 l 1xfe80
165 130 m 1
 165 460 l 1xfe80
 220 460 l 1xfd80
 220 130 l 1
 165 130 l 1
220 130 m 1
 220 185 l 1xfe80
 275 185 l 1
 275 130 l 1xfd80
 220 130 l 1
220 405 m 1
 220 460 l 1xfd80
 440 460 l 1
 440 405 l 1
 220 405 l 1
385 460 m 1
 385 625 l 1
 440 625 l 1
 440 460 l 1
 385 460 l 1
EndSplineSet
Validated: 5
EndChar

StartChar: H
Encoding: 72 72 72
Width: 440
Flags: W
HStem: -90 21G<-55 440> -90 21G<-55 440> -36 1<385 440> 625 55<-55 440>
VStem: -55 55<-35 625> 165 55<-35 240 350 625> 385 55<-36 625>
CounterMasks: 1 0e
LayerCount: 2
Fore
SplineSet
-55 -90 m 1xbe
 -55 -35 l 1
 440 -35 l 1
 440 -90 l 1
 -55 -90 l 1xbe
-55 625 m 1
 -55 680 l 1
 440 680 l 1
 440 625 l 1
 -55 625 l 1
385 -36 m 1
 385 625 l 1
 440 625 l 1
 440 -36 l 1
 385 -36 l 1
165 -35 m 1
 165 240 l 1
 220 240 l 1
 220 -35 l 1
 165 -35 l 1
-55 -35 m 1
 -55 625 l 1
 0 625 l 1
 0 -35 l 1
 -55 -35 l 1
165 350 m 1
 165 625 l 1
 220 625 l 1
 220 350 l 1
 165 350 l 1
EndSplineSet
Validated: 5
EndChar

StartChar: I
Encoding: 73 73 73
Width: 495
Flags: W
HStem: -90 55<0 495> 130 55<-55 110 275 495> 405 55<0 165 330 495> 625 55<-55 440>
VStem: -55 55<-35 130 460 625> 110 55<185 405> 275 55<185 405> 440 55<-35 130 460 625>
LayerCount: 2
Fore
SplineSet
-55 625 m 5
 -55 680 l 5
 495 680 l 5
 495 625 l 5
 -55 625 l 5
-55 405 m 5
 -55 460 l 5
 165 460 l 5
 165 405 l 5
 -55 405 l 5
275 405 m 5
 275 460 l 5
 495 460 l 5
 495 405 l 5
 275 405 l 5
440 460 m 5
 440 625 l 5
 495 625 l 5
 495 460 l 5
 440 460 l 5
275 130 m 5
 275 405 l 5
 330 405 l 5
 330 130 l 5
 275 130 l 5
110 130 m 5
 110 405 l 5
 165 405 l 5
 165 130 l 5
 110 130 l 5
-55 130 m 5
 -55 185 l 5
 110 185 l 5
 110 130 l 5
 -55 130 l 5
-55 -90 m 5
 -55 130 l 5
 0 130 l 5
 0 -90 l 5
 -55 -90 l 5
0 -90 m 5
 0 -35 l 5
 495 -35 l 5
 495 -90 l 5
 0 -90 l 5
275 130 m 5
 275 185 l 5
 495 185 l 5
 495 130 l 5
 275 130 l 5
440 -35 m 5
 440 130 l 5
 495 130 l 5
 495 -35 l 5
 440 -35 l 5
-55 460 m 5
 -55 625 l 5
 0 625 l 5
 0 460 l 5
 -55 460 l 5
EndSplineSet
Validated: 5
EndChar

StartChar: J
Encoding: 74 74 74
Width: 495
Flags: W
HStem: -90 55<0 440> 130 165<165 275> 240 55<0 165> 295 110<220 275> 350 55<-55 220> 625 55<-55 495>
VStem: -55 55<-35 295 405 625> 165 110<130 295> 220 55<295 350> 440 55<-90 625>
LayerCount: 2
Fore
SplineSet
-55 625 m 1x8640
 -55 680 l 1
 495 680 l 1
 495 625 l 1
 -55 625 l 1x8640
440 -90 m 1
 440 625 l 1
 495 625 l 1
 495 -90 l 1
 440 -90 l 1
0 -90 m 1
 0 -35 l 1
 440 -35 l 1
 440 -90 l 1
 0 -90 l 1
-55 -90 m 1
 -55 295 l 1x9640
 0 295 l 1xa640
 0 -90 l 1
 -55 -90 l 1
0 240 m 1xa740
 0 295 l 1xa740
 165 295 l 1xc740
 165 240 l 1
 0 240 l 1xa740
165 130 m 1xc740
 165 295 l 1
 275 295 l 1
 275 130 l 1
 165 130 l 1xc740
220 295 m 1xcec0
 220 350 l 1
 275 350 l 1xcec0
 275 295 l 1xcf40
 220 295 l 1xcec0
-55 350 m 1
 -55 405 l 1x8ec0
 275 405 l 1x96c0
 275 350 l 1
 -55 350 l 1
-55 405 m 1
 -55 625 l 1
 0 625 l 1
 0 405 l 1
 -55 405 l 1
EndSplineSet
Validated: 5
EndChar

StartChar: K
Encoding: 75 75 75
Width: 440
Flags: W
HStem: -90 21G<-55 435> -90 21G<-55 435> 240 55<165 385> 625 55<-55 440>
VStem: -55 55<-35 625> 165 55<-35 185 405 625> 385 55<-35 625>
CounterMasks: 1 0e
LayerCount: 2
Fore
SplineSet
-55 625 m 1x3e
 -55 680 l 1
 440 680 l 1
 440 625 l 1
 -55 625 l 1x3e
385 -35 m 1
 385 625 l 1
 440 625 l 1
 440 -35 l 1
 385 -35 l 1
-55 -35 m 1
 -55 625 l 1
 0 625 l 1
 0 -35 l 1
 -55 -35 l 1
-55 -90 m 1xbe
 -55 -35 l 1
 435 -35 l 1
 435 -90 l 1
 -55 -90 l 1xbe
165 240 m 1
 165 295 l 1
 385 295 l 1
 385 240 l 1
 165 240 l 1
165 -35 m 1
 165 185 l 1
 220 185 l 1
 220 -35 l 1
 165 -35 l 1
165 405 m 1
 165 625 l 1
 220 625 l 1
 220 405 l 1
 165 405 l 1
EndSplineSet
Validated: 5
EndChar

StartChar: L
Encoding: 76 76 76
Width: 440
Flags: W
HStem: -90 55<0 385> 130 55<220 385> 625.5 54.5<-54.5 167.5>
VStem: -54.5 54.5<-35 625.5> 165 55<185 625.5> 165 2.5<625.5 680> 385 55<-35 185>
LayerCount: 2
Fore
SplineSet
-55 -90 m 1xf2
 -55 680 l 1
 0 680 l 1
 0 -90 l 1
 -55 -90 l 1xf2
0 -90 m 1
 0 -35 l 1
 440 -35 l 1
 440 -90 l 1
 0 -90 l 1
385 -35 m 1
 385 185 l 1
 440 185 l 1
 440 -35 l 1
 385 -35 l 1
165 130 m 1xf6
 165 185 l 1xfa
 385 185 l 1
 385 130 l 1
 165 130 l 1xf6
165 185 m 1
 165 680 l 1xf6
 220 680 l 1
 220 185 l 1
 165 185 l 1
-54.5 625.5 m 1
 -54.5 680 l 1
 167.5 680 l 1
 167.5 625.5 l 1
 -54.5 625.5 l 1
EndSplineSet
Validated: 5
EndChar

StartChar: M
Encoding: 77 77 77
Width: 660
Flags: W
HStem: -90 55<0 605> 625 54<-55 660>
VStem: -55 55<-90 625> 165 55<-35 350> 385 55<-35 350> 605 55<-90 625>
LayerCount: 2
Fore
SplineSet
-55 625 m 1
 -55 679 l 1
 660 679 l 1
 660 625 l 1
 -55 625 l 1
605 -90 m 1
 605 625 l 1
 660 625 l 1
 660 -90 l 1
 605 -90 l 1
-55 -90 m 1
 -55 625 l 1
 0 625 l 1
 0 -90 l 1
 -55 -90 l 1
0 -90 m 1
 0 -35 l 1
 605 -35 l 1
 605 -90 l 1
 0 -90 l 1
165 -35 m 1
 165 350 l 1
 220 350 l 1
 220 -35 l 1
 165 -35 l 1
385 -35 m 1
 385 350 l 1
 440 350 l 1
 440 -35 l 1
 385 -35 l 1
EndSplineSet
Validated: 5
EndChar

StartChar: N
Encoding: 78 78 78
Width: 495
Flags: W
HStem: -90 55<0 110 165 440> 625 55<0 440>
VStem: -55 55<-90 680> 110 55<-35 294> 275 55<295 625> 440 55<-90 680>
LayerCount: 2
Fore
SplineSet
440 -90 m 1
 440 680 l 1
 495 680 l 1
 495 -90 l 1
 440 -90 l 1
-55 -90 m 1
 -55 680 l 1
 0 680 l 1
 0 -90 l 1
 -55 -90 l 1
0 -90 m 1
 0 -35 l 1
 440 -35 l 1
 440 -90 l 1
 0 -90 l 1
0 625 m 1
 0 680 l 1
 440 680 l 1
 440 625 l 1
 0 625 l 1
275 295 m 1
 275 625 l 1
 330 625 l 1
 330 295 l 1
 275 295 l 1
110 -35 m 1
 110 294 l 1
 165 294 l 1
 165 -35 l 1
 110 -35 l 1
EndSplineSet
Validated: 5
EndChar

StartChar: O
Encoding: 79 79 79
Width: 440
Flags: W
HStem: -90 21G<-55 440> -90 21G<-55 440> 185 55<165 220> 350 55<165 220> 625 55<-55 440>
VStem: -55 55<-35 625> 110 110<185 240 350 405> 220 55<185 405> 385 55<-35 625>
LayerCount: 2
Fore
SplineSet
-55 625 m 1x3c80
 -55 680 l 1
 440 680 l 1
 440 625 l 1
 -55 625 l 1x3c80
385 -35 m 1
 385 625 l 1
 440 625 l 1
 440 -35 l 1
 385 -35 l 1
-55 -35 m 1
 -55 625 l 1
 0 625 l 1
 0 -35 l 1
 -55 -35 l 1
-55 -90 m 1xbc80
 -55 -35 l 1
 440 -35 l 1
 440 -90 l 1
 -55 -90 l 1xbc80
110 185 m 1x3e80
 110 405 l 1
 165 405 l 1
 165 185 l 1
 110 185 l 1x3e80
165 185 m 1
 165 240 l 1
 220 240 l 1
 220 185 l 1
 165 185 l 1
165 350 m 1
 165 405 l 1
 220 405 l 1
 220 350 l 1
 165 350 l 1
220 185 m 1
 220 405 l 1x3e80
 275 405 l 1
 275 185 l 1x3d80
 220 185 l 1
EndSplineSet
Validated: 5
EndChar

StartChar: P
Encoding: 80 80 80
Width: 440
Flags: W
HStem: -90 55<0 220> 185 55<165 385> 350 110<165 220> 625 55<-55 440>
VStem: -55 55<-35 625> 165 55<-35 185 350 460> 385 55<185 625>
CounterMasks: 1 0e
LayerCount: 2
Fore
SplineSet
-55 625 m 1
 -55 680 l 1
 440 680 l 1
 440 625 l 1
 -55 625 l 1
385 185 m 1
 385 625 l 1
 440 625 l 1
 440 185 l 1
 385 185 l 1
-55 -35 m 1
 -55 625 l 1
 0 625 l 1
 0 -35 l 1
 -55 -35 l 1
-55 -90 m 1
 -55 -35 l 1
 220 -35 l 1
 220 -90 l 1
 -55 -90 l 1
165 185 m 1
 165 240 l 1
 385 240 l 1
 385 185 l 1
 165 185 l 1
165 -35 m 1
 165 185 l 1
 220 185 l 1
 220 -35 l 1
 165 -35 l 1
165 350 m 1
 165 460 l 1
 220 460 l 1
 220 350 l 1
 165 350 l 1
EndSplineSet
Validated: 5
EndChar

StartChar: Q
Encoding: 81 81 81
Width: 440
Flags: W
HStem: -90 55<-55 440> -35 55<220 275> 130 55<330 385> 625 55<-55 440>
VStem: -55 55<-35 625> 165 55<185 405> 220 55<-35 20> 330 55<130 185> 385 55<-35 625>
LayerCount: 2
Fore
SplineSet
-55 625 m 1x3880
 -55 680 l 1
 440 680 l 1
 440 625 l 1
 -55 625 l 1x3880
-55 -90 m 1xb880
 -55 -35 l 1
 440 -35 l 1
 440 -90 l 1
 -55 -90 l 1xb880
220 -35 m 1xba
 220 20 l 1
 275 20 l 1x7a
 275 -35 l 1
 220 -35 l 1xba
385 -35 m 1xb880
 385 625 l 1
 440 625 l 1
 440 -35 l 1
 385 -35 l 1xb880
-55 -35 m 1
 -55 625 l 1
 0 625 l 1
 0 -35 l 1
 -55 -35 l 1
165 185 m 1x3c
 165 405 l 1
 220 405 l 1
 220 185 l 1
 165 185 l 1x3c
330 130 m 1x39
 330 185 l 1
 385 185 l 1
 385 130 l 1
 330 130 l 1x39
EndSplineSet
Validated: 5
EndChar

StartChar: R
Encoding: 82 82 82
Width: 440
Flags: W
HStem: -90 21G<-55 440> -90 21G<-55 440> 240 55<165 385> 405 110<165 220> 625 55<-55 440>
VStem: -55 55<-35 625> 165 55<-35 130 405 515> 385 55<-35 625>
CounterMasks: 1 07
LayerCount: 2
Fore
SplineSet
-55 625 m 1x3f
 -55 680 l 1
 440 680 l 1
 440 625 l 1
 -55 625 l 1x3f
385 -35 m 1
 385 625 l 1
 440 625 l 1
 440 -35 l 1
 385 -35 l 1
-55 -35 m 1
 -55 625 l 1
 0 625 l 1
 0 -35 l 1
 -55 -35 l 1
-55 -90 m 1xbf
 -55 -35 l 1
 440 -35 l 1
 440 -90 l 1
 -55 -90 l 1xbf
165 240 m 1
 165 295 l 1
 385 295 l 1
 385 240 l 1
 165 240 l 1
165 405 m 1
 165 515 l 1
 220 515 l 1
 220 405 l 1
 165 405 l 1
165 -35 m 1
 165 130 l 1
 220 130 l 1
 220 -35 l 1
 165 -35 l 1
EndSplineSet
Validated: 5
EndChar

StartChar: S
Encoding: 83 83 83
Width: 440
Flags: W
HStem: -90 55<-55 440> 130 55<0 165> 350 55<165 385> 625 55<-55 440>
VStem: -55 55<-35 130 185 625> 385 55<-35 625>
LayerCount: 2
Fore
SplineSet
-55 625 m 1
 -55 680 l 1
 440 680 l 1
 440 625 l 1
 -55 625 l 1
-55 -90 m 1
 -55 -35 l 1
 440 -35 l 1
 440 -90 l 1
 -55 -90 l 1
-55 -35 m 1
 -55 625 l 1
 0 625 l 1
 0 -35 l 1
 -55 -35 l 1
385 -35 m 1
 385 625 l 1
 440 625 l 1
 440 -35 l 1
 385 -35 l 1
165 350 m 1
 165 405 l 1
 385 405 l 1
 385 350 l 1
 165 350 l 1
0 130 m 1
 0 185 l 1
 165 185 l 1
 165 130 l 1
 0 130 l 1
EndSplineSet
Validated: 5
EndChar

StartChar: T
Encoding: 84 84 84
Width: 495
Flags: W
HStem: -90 21G<110 330> -90 21G<110 330> 405 55<0 165 275 440> 625 55<-55 495>
VStem: -55 55<460 625> 110 55<-35 405> 275 55<-35 405> 440 55<460 625>
LayerCount: 2
Fore
SplineSet
275 -31 m 1
 275 -40 l 1
 330 -40 l 1
 330 -31 l 1025x3f
110 -33 m 1
 110 -42 l 1
 165 -42 l 1
 165 -33 l 1025
-55 625 m 1
 -55 680 l 1
 495 680 l 1
 495 625 l 1
 -55 625 l 1
440 460 m 1
 440 625 l 1
 495 625 l 1
 495 460 l 1
 440 460 l 1
-55 460 m 1
 -55 625 l 1
 0 625 l 1
 0 460 l 1
 -55 460 l 1
275 405 m 1
 275 460 l 1
 495 460 l 1
 495 405 l 1
 275 405 l 1
-55 405 m 1
 -55 460 l 1
 165 460 l 1
 165 405 l 1
 -55 405 l 1
110 -35 m 1
 110 405 l 1
 165 405 l 1
 165 -35 l 1
 110 -35 l 1
275 -35 m 1
 275 405 l 1
 330 405 l 1
 330 -35 l 1
 275 -35 l 1
110 -90 m 1xbf
 110 -35 l 1
 330 -35 l 1
 330 -90 l 1
 110 -90 l 1xbf
EndSplineSet
Validated: 3
EndChar

StartChar: U
Encoding: 85 85 85
Width: 440
Flags: W
HStem: -90 55<0 385> 625 55<-55 440>
VStem: -55 55<-90 625> 165 55<185 625> 385 55<-90 625>
CounterMasks: 1 38
LayerCount: 2
Fore
SplineSet
-55 625 m 1
 -55 680 l 1
 440 680 l 1
 440 625 l 1
 -55 625 l 1
385 -90 m 1
 385 625 l 1
 440 625 l 1
 440 -90 l 1
 385 -90 l 1
-55 -90 m 1
 -55 625 l 1
 0 625 l 1
 0 -90 l 1
 -55 -90 l 1
0 -90 m 1
 0 -35 l 1
 385 -35 l 1
 385 -90 l 1
 0 -90 l 1
165 185 m 1
 165 625 l 1
 220 625 l 1
 220 185 l 1
 165 185 l 1
EndSplineSet
Validated: 5
EndChar

StartChar: V
Encoding: 86 86 86
Width: 440
Flags: W
HStem: -90 55<55 330> -35 55<55 110 275 330> 625 55<-55 440>
VStem: -55 55<130 625> 0 110<-35 20> 0 55<20 185> 165 55<240 625> 275 110<-35 20> 330 55<20 185> 385 55<130 625>
LayerCount: 2
Fore
SplineSet
-55 625 m 1x3240
 -55 680 l 1
 440 680 l 1
 440 625 l 1
 -55 625 l 1x3240
385 130 m 1x2280
 385 625 l 1
 440 625 l 1
 440 130 l 1x2240
 385 130 l 1x2280
-55 130 m 1x32
 -55 625 l 1
 0 625 l 1
 0 130 l 1
 -55 130 l 1x32
55 -90 m 1xa680
 55 -35 l 1
 330 -35 l 1
 330 -90 l 1
 55 -90 l 1xa680
275 -35 m 1xa3
 275 20 l 1x63
 330 20 l 1x6280
 330 -35 l 1xa280
 275 -35 l 1xa3
55 -35 m 1xa6
 55 20 l 1x66
 110 20 l 1x6a
 110 -35 l 1xaa
 55 -35 l 1xa6
0 -35 m 1x6a
 0 185 l 1x72
 55 185 l 1
 55 -35 l 1xa6
 0 -35 l 1x6a
330 -35 m 1xa280
 330 185 l 1
 385 185 l 1xa280
 385 -35 l 1x63
 330 -35 l 1xa280
165 240 m 1
 165 625 l 1
 220 625 l 1
 220 240 l 1
 165 240 l 1
EndSplineSet
Validated: 5
EndChar

StartChar: W
Encoding: 87 87 87
Width: 660
Flags: W
HStem: -90 55<-55 605> 625 55<-55 660>
VStem: -55 55<-35 625> 165 55<185 625> 385 55<185 625> 605 55<-35 625>
LayerCount: 2
Fore
SplineSet
-55 625 m 1
 -55 680 l 1
 660 680 l 1
 660 625 l 1
 -55 625 l 1
605 -35 m 1
 605 625 l 1
 660 625 l 1
 660 -35 l 1
 605 -35 l 1
-55 -90 m 1
 -55 -35 l 1
 660 -35 l 1
 660 -90 l 1
 -55 -90 l 1
-55 -35 m 1
 -55 625 l 1
 0 625 l 1
 0 -35 l 1
 -55 -35 l 1
165 185 m 1
 165 625 l 1
 220 625 l 1
 220 185 l 1
 165 185 l 1
385 185 m 1
 385 625 l 1
 440 625 l 1
 440 185 l 1
 385 185 l 1
EndSplineSet
Validated: 5
EndChar

StartChar: X
Encoding: 88 88 88
Width: 440
Flags: W
HStem: -90 55<0 112 275 385> 130 55<165 220> 295 55<0 55 330 385> 405 55<165 220> 625 55<0 110 275 385>
VStem: -55 110<295 350> -55 55<-90 295 350 625> 110 110<405 460> 110 55<-90 -89 -35 185 460 625> 110 2<-89 -35> 165 110<130 185> 220 55<-90 130 405 625> 275 110<-90 -35> 330 55<295 350>
LayerCount: 2
Fore
SplineSet
-55 -90 m 1xfa
 -55 680 l 1
 0 680 l 1
 0 -90 l 1
 -55 -90 l 1xfa
0 625 m 1
 0 680 l 1
 110 680 l 1xfa40
 110 625 l 1xf880
 0 625 l 1
110 405 m 1xf9
 110 680 l 1
 165 680 l 1
 165 405 l 1xf860
 110 405 l 1xf9
165 405 m 1
 165 460 l 1xf880
 220 460 l 1
 220 405 l 1xf9
 165 405 l 1
220 405 m 1xf9
 220 680 l 1xf810
 275 680 l 1xf808
 275 405 l 1xf810
 220 405 l 1xf9
275 625 m 1
 275 680 l 1xf808
 385 680 l 1
 385 625 l 1xf804
 275 625 l 1
385 -90 m 1
 385 680 l 1xf804
 440 680 l 1
 440 -90 l 1
 385 -90 l 1
275 -90 m 1xf810
 275 -35 l 1xf810
 385 -35 l 1
 385 -90 l 1xf808
 275 -90 l 1xf810
0 -89 m 1xfa40
 0 -35 l 1
 112 -35 l 1
 112 -89 l 1
 0 -89 l 1xfa40
110 -90 m 1xf880
 110 185 l 1
 165 185 l 1
 165 -90 l 1
 110 -90 l 1xf880
165 130 m 1
 165 185 l 1
 220 185 l 1
 220 130 l 1xf890
 165 130 l 1
220 -90 m 1
 220 185 l 1xf810
 275 185 l 1xf820
 275 -90 l 1
 220 -90 l 1
330 295 m 1xf804
 330 350 l 1
 385 350 l 1
 385 295 l 1
 330 295 l 1xf804
0 295 m 1xfa
 0 350 l 1xfa
 55 350 l 1
 55 295 l 1xfc
 0 295 l 1xfa
EndSplineSet
Validated: 5
EndChar

StartChar: Y
Encoding: 89 89 89
Width: 440
Flags: W
HStem: -91 56<0 385> 185 55<165 220> 240 55<0 220> 625 54<0 385>
VStem: 165 55<185 240 405 625> 385 55<-91 679>
LayerCount: 2
Fore
SplineSet
-55 -91 m 1x9c
 -55 679 l 1
 0 679 l 1
 0 -91 l 1
 -55 -91 l 1x9c
385 -91 m 1
 385 679 l 1
 440 679 l 1
 440 -91 l 1
 385 -91 l 1
0 625 m 1
 0 679 l 1
 385 679 l 1
 385 625 l 1
 0 625 l 1
0 -91 m 1
 0 -35 l 1
 385 -35 l 1
 385 -91 l 1
 0 -91 l 1
0 240 m 1xbc
 0 295 l 1
 220 295 l 1xbc
 220 240 l 1xdc
 0 240 l 1xbc
165 185 m 1xdc
 165 240 l 1
 220 240 l 1
 220 185 l 1
 165 185 l 1xdc
165 405 m 1
 165 625 l 1
 220 625 l 1
 220 405 l 1
 165 405 l 1
EndSplineSet
Validated: 5
EndChar

StartChar: Z
Encoding: 90 90 90
Width: 440
Flags: W
HStem: -90 55<0 385> 130 55<165 385> 350 55<0 220> 625 55<0 385>
VStem: 385 55<-35 680>
LayerCount: 2
Fore
SplineSet
-55 -90 m 1
 -55 680 l 1
 0 680 l 1
 0 -90 l 1
 -55 -90 l 1
0 -90 m 1
 0 -35 l 1
 385 -35 l 1
 385 -90 l 1
 0 -90 l 1
385 -90 m 1
 385 680 l 1
 440 680 l 1
 440 -90 l 1
 385 -90 l 1
0 625 m 1
 0 680 l 1
 385 680 l 1
 385 625 l 1
 0 625 l 1
0 350 m 1
 0 405 l 1
 220 405 l 1
 220 350 l 1
 0 350 l 1
165 130 m 1
 165 185 l 1
 385 185 l 1
 385 130 l 1
 165 130 l 1
EndSplineSet
Validated: 5
EndChar

StartChar: bracketleft
Encoding: 91 91 91
Width: 440
Flags: W
HStem: -200 55<0 330> -35 55<220 275> 570 55<220 275> 735 55<0 330>
VStem: 0 55<-145 735> 165 110<-35 20 570 625> 275 55<-145 20 570 735>
LayerCount: 2
Fore
SplineSet
0 735 m 1xfa
 0 790 l 1
 330 790 l 1
 330 735 l 1
 0 735 l 1xfa
0 -200 m 1
 0 -145 l 1
 330 -145 l 1
 330 -200 l 1
 0 -200 l 1
0 -145 m 1
 0 735 l 1
 55 735 l 1
 55 -145 l 1
 0 -145 l 1
275 570 m 1xfc
 275 735 l 1
 330 735 l 1
 330 570 l 1xfa
 275 570 l 1xfc
275 -145 m 1
 275 20 l 1xfc
 330 20 l 1
 330 -145 l 1
 275 -145 l 1
220 -35 m 1
 220 20 l 1
 275 20 l 1
 275 -35 l 1
 220 -35 l 1
220 570 m 1
 220 625 l 1
 275 625 l 1
 275 570 l 1
 220 570 l 1
165 -35 m 1
 165 625 l 1
 220 625 l 1
 220 -35 l 1
 165 -35 l 1
EndSplineSet
Validated: 5
EndChar

StartChar: bracketright
Encoding: 93 93 93
Width: 440
Flags: W
HStem: -200 55<55 385> -35 55<110 165> 570 55<110 165> 735 55<55 330> 735 5<330 385>
VStem: 55 55<-145 20 570 735> 110 55<-35 20 570 625> 165 55<-35 625> 330 55<-140 740>
LayerCount: 2
Fore
SplineSet
55 735 m 1xf480
 55 790 l 1
 385 790 l 1xf480
 385 735 l 1xec80
 55 735 l 1xf480
55 -200 m 1
 55 -145 l 1
 385 -145 l 1
 385 -200 l 1
 55 -200 l 1
330 -140 m 1
 330 740 l 1
 385 740 l 1xe880
 385 -140 l 1
 330 -140 l 1
55 570 m 1xf480
 55 735 l 1
 110 735 l 1
 110 570 l 1
 55 570 l 1xf480
55 -145 m 1
 55 20 l 1
 110 20 l 1
 110 -145 l 1
 55 -145 l 1
110 -35 m 1
 110 20 l 1xe480
 165 20 l 1
 165 -35 l 1xe280
 110 -35 l 1
110 570 m 1
 110 625 l 1xe480
 165 625 l 1
 165 570 l 1xe280
 110 570 l 1
165 -35 m 1xe280
 165 625 l 1xe280
 220 625 l 1
 220 -35 l 1xe180
 165 -35 l 1xe280
EndSplineSet
Validated: 5
EndChar

StartChar: grave
Encoding: 96 96 96
Width: 440
Flags: W
HStem: 405 110<110 165 220 275> 515 110<220 275> 625 55<55 275>
VStem: 55 110<460 515> 55 55<515 625> 220 55<460 625>
LayerCount: 2
Fore
SplineSet
55 625 m 1x2c
 55 680 l 1
 275 680 l 1x2c
 275 625 l 1x4c
 55 625 l 1x2c
220 515 m 1x84
 220 625 l 1
 275 625 l 1x44
 275 515 l 1
 220 515 l 1x84
55 460 m 1x34
 55 625 l 1
 110 625 l 1
 110 460 l 1x2c
 55 460 l 1x34
110 460 m 1
 110 515 l 1x8c
 165 515 l 1
 165 460 l 1x94
 110 460 l 1
220 460 m 1
 220 515 l 1
 275 515 l 1
 275 460 l 1
 220 460 l 1
110 405 m 1
 110 460 l 1
 275 460 l 1
 275 405 l 1
 110 405 l 1
EndSplineSet
Validated: 5
EndChar

StartChar: a
Encoding: 97 97 97
Width: 440
Flags: W
HStem: -90 55<0 385> 625 55<-55 440>
VStem: -55 55<-35 625> 165 55<-35 185 295 460> 385 55<-90 625>
CounterMasks: 1 38
LayerCount: 2
Fore
SplineSet
-55 625 m 1
 -55 680 l 1
 440 680 l 1
 440 625 l 1
 -55 625 l 1
385 -90 m 1
 385 625 l 1
 440 625 l 1
 440 -90 l 1
 385 -90 l 1
0 -90 m 1
 0 -35 l 1
 385 -35 l 1
 385 -90 l 1
 0 -90 l 1
165 -35 m 1
 165 185 l 1
 220 185 l 1
 220 -35 l 1
 165 -35 l 1
-55 -90 m 1
 -55 680 l 1
 0 680 l 1
 0 -90 l 1
 -55 -90 l 1
165 295 m 1
 165 460 l 1
 220 460 l 1
 220 295 l 1
 165 295 l 1
EndSplineSet
Validated: 5
EndChar

StartChar: b
Encoding: 98 98 98
Width: 440
Flags: W
HStem: -90 55<0 385> 75 55<165 220> 240 55<165 385> 405 110<165 220> 626 54<0 385>
VStem: 165 55<75 130 405 515> 385 55<-90 680>
LayerCount: 2
Fore
SplineSet
-55 -90 m 1
 -55 680 l 1
 0 680 l 1
 0 -90 l 1
 -55 -90 l 1
385 -90 m 1
 385 680 l 1
 440 680 l 1
 440 -90 l 1
 385 -90 l 1
0 -90 m 1
 0 -35 l 1
 385 -35 l 1
 385 -90 l 1
 0 -90 l 1
0 626 m 1
 0 680 l 1
 385 680 l 1
 385 626 l 1
 0 626 l 1
165 405 m 1
 165 515 l 1
 220 515 l 1
 220 405 l 1
 165 405 l 1
165 240 m 1
 165 295 l 1
 385 295 l 1
 385 240 l 1
 165 240 l 1
165 75 m 1
 165 130 l 1
 220 130 l 1
 220 75 l 1
 165 75 l 1
EndSplineSet
Validated: 5
EndChar

StartChar: c
Encoding: 99 99 99
Width: 440
Flags: W
HStem: -90 55<0 385> 240 55<220 385> 625 55<0 385>
VStem: 165 55<185 405> 385 55<-90 680>
LayerCount: 2
Fore
SplineSet
-55 -90 m 1
 -55 680 l 1
 0 680 l 1
 0 -90 l 1
 -55 -90 l 1
385 -90 m 1
 385 680 l 1
 440 680 l 1
 440 -90 l 1
 385 -90 l 1
0 -90 m 1
 0 -35 l 1
 385 -35 l 1
 385 -90 l 1
 0 -90 l 1
165 185 m 1
 165 405 l 1
 220 405 l 1
 220 185 l 1
 165 185 l 1
220 240 m 1
 220 295 l 1
 385 295 l 1
 385 240 l 1
 220 240 l 1
0 625 m 1
 0 680 l 1
 385 680 l 1
 385 625 l 1
 0 625 l 1
EndSplineSet
Validated: 5
EndChar

StartChar: d
Encoding: 100 100 100
Width: 440
Flags: W
HStem: -90 55<-55 385> -35 55<330 440> 570 55<330 440> 625 55<-55 385>
VStem: -55 55<-35 625> 165 55<185 405> 330 110<-35 20 570 625> 385 55<20 570>
LayerCount: 2
Fore
SplineSet
-55 625 m 1x1d
 -55 680 l 1
 385 680 l 1x1d
 385 625 l 1x2d
 -55 625 l 1x1d
330 570 m 1x2e
 330 625 l 1
 440 625 l 1
 440 570 l 1
 330 570 l 1x2e
-55 -90 m 1x8d
 -55 -35 l 1
 385 -35 l 1
 385 -90 l 1
 -55 -90 l 1x8d
330 -35 m 1x8e
 330 20 l 1
 440 20 l 1
 440 -35 l 1x4e
 330 -35 l 1x8e
385 20 m 1x6d
 385 570 l 1x6d
 440 570 l 1
 440 20 l 1x6e
 385 20 l 1x6d
-55 -35 m 1x9c
 -55 625 l 1
 0 625 l 1
 0 -35 l 1
 -55 -35 l 1x9c
165 185 m 1
 165 405 l 1
 220 405 l 1
 220 185 l 1
 165 185 l 1
EndSplineSet
Validated: 5
EndChar

StartChar: e
Encoding: 101 101 101
Width: 441
Flags: W
HStem: -90 55<-54.5 440.5> 185 55<165.5 385.5> 350 55<165.5 385.5> 625.5 55<-55 385.5 440.5 441> 625.5 0.5<385.5 440.5>
VStem: -55 55<-35 625.5> 385.5 55<-90 626>
LayerCount: 2
Fore
SplineSet
-55 625.5 m 1xf6
 -55 680.5 l 1
 441 680.5 l 1
 441 625.5 l 1
 -55 625.5 l 1xf6
385.5 -90 m 1
 385.5 626 l 1
 440.5 626 l 1xee
 440.5 -90 l 1
 385.5 -90 l 1
165.5 350 m 1
 165.5 405 l 1
 385.5 405 l 1
 385.5 350 l 1
 165.5 350 l 1
165.5 185 m 1
 165.5 240 l 1
 385.5 240 l 1
 385.5 185 l 1
 165.5 185 l 1
-54.5 -90 m 1
 -54.5 -35 l 1
 440.5 -35 l 1
 440.5 -90 l 1
 -54.5 -90 l 1
-55 -35 m 1
 -55 680 l 1
 0 680 l 1
 0 -35 l 1
 -55 -35 l 1
EndSplineSet
Validated: 5
EndChar

StartChar: f
Encoding: 102 102 102
Width: 440
Flags: W
HStem: -90 55<-55 165.5> 185 55<166 440> 350 55<166 385> 625 55<0 440>
VStem: -55 55<-35 625> 166 54<-90 185> 385 55<240 625>
LayerCount: 2
Fore
SplineSet
-55 -90 m 1
 -55 680 l 1
 0 680 l 1
 0 -90 l 1
 -55 -90 l 1
0 -90 m 1
 0 -35 l 1
 220 -35 l 1
 220 -90 l 1
 0 -90 l 1
165.5 -35 m 1
 165.5 240 l 1
 220.5 240 l 1
 220.5 -35 l 1
 165.5 -35 l 1
166 -90 m 1
 166 240 l 1
 220 240 l 1
 220 -90 l 1
 166 -90 l 1
220 185 m 1
 220 240 l 1
 440 240 l 1
 440 185 l 1
 220 185 l 1
-55 -90 m 1
 -55 -35 l 1
 165 -35 l 1
 165 -90 l 1
 -55 -90 l 1
-55 -35 m 1
 -55 680 l 1
 0 680 l 1
 0 -35 l 1
 -55 -35 l 1
0 625 m 1
 0 680 l 1
 440 680 l 1
 440 625 l 1
 0 625 l 1
385 240 m 1
 385 625 l 1
 440 625 l 1
 440 240 l 1
 385 240 l 1
166 185 m 1
 166 240 l 1
 440 240 l 1
 440 185 l 1
 166 185 l 1
166 350 m 1
 166 405 l 1
 385 405 l 1
 385 350 l 1
 166 350 l 1
EndSplineSet
Validated: 5
EndChar

StartChar: g
Encoding: 103 103 103
Width: 440
Flags: W
HStem: -90 55<0 440> 130 55<220 275> 295 55<165 385> 405 55<220 385> 625 55<-55 440>
VStem: -55 55<-35 625> 165 55<130 295 350 405> 220 55<130 185> 385 55<-35 350 460 625>
LayerCount: 2
Fore
SplineSet
-55 625 m 1xfc80
 -55 680 l 1
 440 680 l 1
 440 625 l 1
 -55 625 l 1xfc80
-55 -35 m 1
 -55 625 l 1
 0 625 l 1
 0 -35 l 1
 -55 -35 l 1
-55 -90 m 1
 -55 -35 l 1
 440 -35 l 1
 440 -90 l 1
 -55 -90 l 1
385 -35 m 1
 385 350 l 1
 440 350 l 1
 440 -35 l 1
 385 -35 l 1
165 295 m 1xfe80
 165 350 l 1
 385 350 l 1
 385 295 l 1
 165 295 l 1xfe80
165 130 m 1
 165 460 l 1xfe80
 220 460 l 1xfd80
 220 130 l 1
 165 130 l 1
220 130 m 1
 220 185 l 1xfe80
 275 185 l 1
 275 130 l 1xfd80
 220 130 l 1
220 405 m 1
 220 460 l 1xfd80
 440 460 l 1
 440 405 l 1
 220 405 l 1
385 460 m 1
 385 625 l 1
 440 625 l 1
 440 460 l 1
 385 460 l 1
EndSplineSet
Validated: 5
EndChar

StartChar: h
Encoding: 104 104 104
Width: 440
Flags: W
HStem: -90 21G<-55 440> -90 21G<-55 440> -36 1<385 440> 625 55<-55 440>
VStem: -55 55<-35 625> 165 55<-35 240 350 625> 385 55<-36 625>
CounterMasks: 1 0e
LayerCount: 2
Fore
SplineSet
-55 -90 m 1xbe
 -55 -35 l 1
 440 -35 l 1
 440 -90 l 1
 -55 -90 l 1xbe
-55 625 m 1
 -55 680 l 1
 440 680 l 1
 440 625 l 1
 -55 625 l 1
385 -36 m 1
 385 625 l 1
 440 625 l 1
 440 -36 l 1
 385 -36 l 1
165 -35 m 1
 165 240 l 1
 220 240 l 1
 220 -35 l 1
 165 -35 l 1
-55 -35 m 1
 -55 625 l 1
 0 625 l 1
 0 -35 l 1
 -55 -35 l 1
165 350 m 1
 165 625 l 1
 220 625 l 1
 220 350 l 1
 165 350 l 1
EndSplineSet
Validated: 5
EndChar

StartChar: i
Encoding: 105 105 105
Width: 495
Flags: W
HStem: -89.5 55<0 495> 130.5 55<-55 110 275 495> 405.5 55<0 165 330 495> 625.5 55<-55 440>
VStem: -55 55<-34.5 130.5 460.5 625.5> 110 55<185.5 405.5> 275 55<185.5 405.5> 440 55<-34.5 130.5 460.5 625.5>
LayerCount: 2
Fore
SplineSet
-55 625.5 m 1
 -55 680.5 l 1
 495 680.5 l 1
 495 625.5 l 1
 -55 625.5 l 1
-55 405.5 m 1
 -55 460.5 l 1
 165 460.5 l 1
 165 405.5 l 1
 -55 405.5 l 1
275 405.5 m 1
 275 460.5 l 1
 495 460.5 l 1
 495 405.5 l 1
 275 405.5 l 1
440 460.5 m 1
 440 625.5 l 1
 495 625.5 l 1
 495 460.5 l 1
 440 460.5 l 1
275 130.5 m 1
 275 405.5 l 1
 330 405.5 l 1
 330 130.5 l 1
 275 130.5 l 1
110 130.5 m 1
 110 405.5 l 1
 165 405.5 l 1
 165 130.5 l 1
 110 130.5 l 1
-55 130.5 m 1
 -55 185.5 l 1
 110 185.5 l 1
 110 130.5 l 1
 -55 130.5 l 1
-55 -89.5 m 1
 -55 130.5 l 1
 0 130.5 l 1
 0 -89.5 l 1
 -55 -89.5 l 1
0 -89.5 m 1
 0 -34.5 l 1
 495 -34.5 l 1
 495 -89.5 l 1
 0 -89.5 l 1
275 130.5 m 1
 275 185.5 l 1
 495 185.5 l 1
 495 130.5 l 1
 275 130.5 l 1
440 -34.5 m 1
 440 130.5 l 1
 495 130.5 l 1
 495 -34.5 l 1
 440 -34.5 l 1
-55 460.5 m 1
 -55 625.5 l 1
 0 625.5 l 1
 0 460.5 l 1
 -55 460.5 l 1
EndSplineSet
Validated: 5
EndChar

StartChar: j
Encoding: 106 106 106
Width: 495
Flags: W
HStem: -90 55<0 440> 130 165<165 275> 240 55<0 165> 295 110<220 275> 350 55<-55 220> 625 55<-55 495>
VStem: -55 55<-35 295 405 625> 165 110<130 295> 220 55<295 350> 440 55<-90 625>
LayerCount: 2
Fore
SplineSet
-55 625 m 1x8640
 -55 680 l 1
 495 680 l 1
 495 625 l 1
 -55 625 l 1x8640
440 -90 m 1
 440 625 l 1
 495 625 l 1
 495 -90 l 1
 440 -90 l 1
0 -90 m 1
 0 -35 l 1
 440 -35 l 1
 440 -90 l 1
 0 -90 l 1
-55 -90 m 1
 -55 295 l 1x9640
 0 295 l 1xa640
 0 -90 l 1
 -55 -90 l 1
0 240 m 1xa740
 0 295 l 1xa740
 165 295 l 1xc740
 165 240 l 1
 0 240 l 1xa740
165 130 m 1xc740
 165 295 l 1
 275 295 l 1
 275 130 l 1
 165 130 l 1xc740
220 295 m 1xcec0
 220 350 l 1
 275 350 l 1xcec0
 275 295 l 1xcf40
 220 295 l 1xcec0
-55 350 m 1
 -55 405 l 1x8ec0
 275 405 l 1x96c0
 275 350 l 1
 -55 350 l 1
-55 405 m 1
 -55 625 l 1
 0 625 l 1
 0 405 l 1
 -55 405 l 1
EndSplineSet
Validated: 5
EndChar

StartChar: k
Encoding: 107 107 107
Width: 440
Flags: W
HStem: -90 21G<-55 435> -90 21G<-55 435> 240 55<165 385> 625 55<-55 440>
VStem: -55 55<-35 625> 165 55<-35 185 405 625> 385 55<-35 625>
CounterMasks: 1 0e
LayerCount: 2
Fore
SplineSet
-55 625 m 1x3e
 -55 680 l 1
 440 680 l 1
 440 625 l 1
 -55 625 l 1x3e
385 -35 m 1
 385 625 l 1
 440 625 l 1
 440 -35 l 1
 385 -35 l 1
-55 -35 m 1
 -55 625 l 1
 0 625 l 1
 0 -35 l 1
 -55 -35 l 1
-55 -90 m 1xbe
 -55 -35 l 1
 435 -35 l 1
 435 -90 l 1
 -55 -90 l 1xbe
165 240 m 1
 165 295 l 1
 385 295 l 1
 385 240 l 1
 165 240 l 1
165 -35 m 1
 165 185 l 1
 220 185 l 1
 220 -35 l 1
 165 -35 l 1
165 405 m 1
 165 625 l 1
 220 625 l 1
 220 405 l 1
 165 405 l 1
EndSplineSet
Validated: 5
EndChar

StartChar: l
Encoding: 108 108 108
Width: 440
Flags: W
HStem: -90 55<0 385> 130 55<220 385> 625.5 54.5<-54.5 167.5>
VStem: -54.5 54.5<-35 625.5> 165 55<185 625.5> 165 2.5<625.5 680> 385 55<-35 185>
LayerCount: 2
Fore
SplineSet
-55 -90 m 1xf2
 -55 680 l 1
 0 680 l 1
 0 -90 l 1
 -55 -90 l 1xf2
0 -90 m 1
 0 -35 l 1
 440 -35 l 1
 440 -90 l 1
 0 -90 l 1
385 -35 m 1
 385 185 l 1
 440 185 l 1
 440 -35 l 1
 385 -35 l 1
165 130 m 1xf6
 165 185 l 1xfa
 385 185 l 1
 385 130 l 1
 165 130 l 1xf6
165 185 m 1
 165 680 l 1xf6
 220 680 l 1
 220 185 l 1
 165 185 l 1
-54.5 625.5 m 1
 -54.5 680 l 1
 167.5 680 l 1
 167.5 625.5 l 1
 -54.5 625.5 l 1
EndSplineSet
Validated: 5
EndChar

StartChar: m
Encoding: 109 109 109
Width: 660
Flags: W
HStem: -90 55<0 605> 625 54<-55 660>
VStem: -55 55<-90 625> 165 55<-35 350> 385 55<-35 350> 605 55<-90 625>
LayerCount: 2
Fore
SplineSet
-55 625 m 1
 -55 679 l 1
 660 679 l 1
 660 625 l 1
 -55 625 l 1
605 -90 m 1
 605 625 l 1
 660 625 l 1
 660 -90 l 1
 605 -90 l 1
-55 -90 m 1
 -55 625 l 1
 0 625 l 1
 0 -90 l 1
 -55 -90 l 1
0 -90 m 1
 0 -35 l 1
 605 -35 l 1
 605 -90 l 1
 0 -90 l 1
165 -35 m 1
 165 350 l 1
 220 350 l 1
 220 -35 l 1
 165 -35 l 1
385 -35 m 1
 385 350 l 1
 440 350 l 1
 440 -35 l 1
 385 -35 l 1
EndSplineSet
Validated: 5
EndChar

StartChar: n
Encoding: 110 110 110
Width: 495
Flags: W
HStem: -90 55<0 110 165 440> 625 55<0 440>
VStem: -55 55<-90 680> 110 55<-35 294> 275 55<295 625> 440 55<-90 680>
LayerCount: 2
Fore
SplineSet
440 -90 m 1
 440 680 l 1
 495 680 l 1
 495 -90 l 1
 440 -90 l 1
-55 -90 m 1
 -55 680 l 1
 0 680 l 1
 0 -90 l 1
 -55 -90 l 1
0 -90 m 1
 0 -35 l 1
 440 -35 l 1
 440 -90 l 1
 0 -90 l 1
0 625 m 1
 0 680 l 1
 440 680 l 1
 440 625 l 1
 0 625 l 1
275 295 m 1
 275 625 l 1
 330 625 l 1
 330 295 l 1
 275 295 l 1
110 -35 m 1
 110 294 l 1
 165 294 l 1
 165 -35 l 1
 110 -35 l 1
EndSplineSet
Validated: 5
EndChar

StartChar: o
Encoding: 111 111 111
Width: 440
Flags: W
HStem: -90 21G<-55 440> -90 21G<-55 440> 185 55<165 220> 350 55<165 220> 625 55<-55 440>
VStem: -55 55<-35 625> 110 110<185 240 350 405> 220 55<185 405> 385 55<-35 625>
LayerCount: 2
Fore
SplineSet
-55 625 m 1x3c80
 -55 680 l 1
 440 680 l 1
 440 625 l 1
 -55 625 l 1x3c80
385 -35 m 1
 385 625 l 1
 440 625 l 1
 440 -35 l 1
 385 -35 l 1
-55 -35 m 1
 -55 625 l 1
 0 625 l 1
 0 -35 l 1
 -55 -35 l 1
-55 -90 m 1xbc80
 -55 -35 l 1
 440 -35 l 1
 440 -90 l 1
 -55 -90 l 1xbc80
110 185 m 1x3e80
 110 405 l 1
 165 405 l 1
 165 185 l 1
 110 185 l 1x3e80
165 185 m 1
 165 240 l 1
 220 240 l 1
 220 185 l 1
 165 185 l 1
165 350 m 1
 165 405 l 1
 220 405 l 1
 220 350 l 1
 165 350 l 1
220 185 m 1
 220 405 l 1x3e80
 275 405 l 1
 275 185 l 1x3d80
 220 185 l 1
EndSplineSet
Validated: 5
EndChar

StartChar: p
Encoding: 112 112 112
Width: 440
Flags: W
HStem: -90 55<0 220> 185 55<165 385> 350 110<165 220> 625 55<-55 440>
VStem: -55 55<-35 625> 165 55<-35 185 350 460> 385 55<185 625>
CounterMasks: 1 0e
LayerCount: 2
Fore
SplineSet
-55 625 m 1
 -55 680 l 1
 440 680 l 1
 440 625 l 1
 -55 625 l 1
385 185 m 1
 385 625 l 1
 440 625 l 1
 440 185 l 1
 385 185 l 1
-55 -35 m 1
 -55 625 l 1
 0 625 l 1
 0 -35 l 1
 -55 -35 l 1
-55 -90 m 1
 -55 -35 l 1
 220 -35 l 1
 220 -90 l 1
 -55 -90 l 1
165 185 m 1
 165 240 l 1
 385 240 l 1
 385 185 l 1
 165 185 l 1
165 -35 m 1
 165 185 l 1
 220 185 l 1
 220 -35 l 1
 165 -35 l 1
165 350 m 1
 165 460 l 1
 220 460 l 1
 220 350 l 1
 165 350 l 1
EndSplineSet
Validated: 5
EndChar

StartChar: q
Encoding: 113 113 113
Width: 440
Flags: W
HStem: -90 55<-55 440> -35 55<220 275> 130 55<330 385> 625 55<-55 440>
VStem: -55 55<-35 625> 165 55<185 405> 220 55<-35 20> 330 55<130 185> 385 55<-35 625>
LayerCount: 2
Fore
SplineSet
-55 625 m 1x3880
 -55 680 l 1
 440 680 l 1
 440 625 l 1
 -55 625 l 1x3880
-55 -90 m 1xb880
 -55 -35 l 1
 440 -35 l 1
 440 -90 l 1
 -55 -90 l 1xb880
220 -35 m 1xba
 220 20 l 1
 275 20 l 1x7a
 275 -35 l 1
 220 -35 l 1xba
385 -35 m 1xb880
 385 625 l 1
 440 625 l 1
 440 -35 l 1
 385 -35 l 1xb880
-55 -35 m 1
 -55 625 l 1
 0 625 l 1
 0 -35 l 1
 -55 -35 l 1
165 185 m 1x3c
 165 405 l 1
 220 405 l 1
 220 185 l 1
 165 185 l 1x3c
330 130 m 1x39
 330 185 l 1
 385 185 l 1
 385 130 l 1
 330 130 l 1x39
EndSplineSet
Validated: 5
EndChar

StartChar: r
Encoding: 114 114 114
Width: 440
Flags: W
HStem: -90 21G<-55 440> -90 21G<-55 440> 240 55<165 385> 405 110<165 220> 625 55<-55 440>
VStem: -55 55<-35 625> 165 55<-35 130 405 515> 385 55<-35 625>
CounterMasks: 1 07
LayerCount: 2
Fore
SplineSet
-55 625 m 1x3f
 -55 680 l 1
 440 680 l 1
 440 625 l 1
 -55 625 l 1x3f
385 -35 m 1
 385 625 l 1
 440 625 l 1
 440 -35 l 1
 385 -35 l 1
-55 -35 m 1
 -55 625 l 1
 0 625 l 1
 0 -35 l 1
 -55 -35 l 1
-55 -90 m 1xbf
 -55 -35 l 1
 440 -35 l 1
 440 -90 l 1
 -55 -90 l 1xbf
165 240 m 1
 165 295 l 1
 385 295 l 1
 385 240 l 1
 165 240 l 1
165 405 m 1
 165 515 l 1
 220 515 l 1
 220 405 l 1
 165 405 l 1
165 -35 m 1
 165 130 l 1
 220 130 l 1
 220 -35 l 1
 165 -35 l 1
EndSplineSet
Validated: 5
EndChar

StartChar: s
Encoding: 115 115 115
Width: 440
Flags: W
HStem: -90 55<-55 440> 130 55<0 165> 350 55<165 385> 625 55<-55 440>
VStem: -55 55<-35 130 185 625> 385 55<-35 625>
LayerCount: 2
Fore
SplineSet
-55 625 m 1
 -55 680 l 1
 440 680 l 1
 440 625 l 1
 -55 625 l 1
-55 -90 m 1
 -55 -35 l 1
 440 -35 l 1
 440 -90 l 1
 -55 -90 l 1
-55 -35 m 1
 -55 625 l 1
 0 625 l 1
 0 -35 l 1
 -55 -35 l 1
385 -35 m 1
 385 625 l 1
 440 625 l 1
 440 -35 l 1
 385 -35 l 1
165 350 m 1
 165 405 l 1
 385 405 l 1
 385 350 l 1
 165 350 l 1
0 130 m 1
 0 185 l 1
 165 185 l 1
 165 130 l 1
 0 130 l 1
EndSplineSet
Validated: 5
EndChar

StartChar: t
Encoding: 116 116 116
Width: 495
Flags: W
HStem: -90 21G<110 330> -90 21G<110 330> 405 55<0 165 275 440> 625 55<-55 495>
VStem: -55 55<460 625> 110 55<-35 405> 275 55<-35 405> 440 55<460 625>
LayerCount: 2
Fore
SplineSet
-55 625 m 1x3f
 -55 680 l 1
 495 680 l 1
 495 625 l 1
 -55 625 l 1x3f
440 460 m 1
 440 625 l 1
 495 625 l 1
 495 460 l 1
 440 460 l 1
-55 460 m 1
 -55 625 l 1
 0 625 l 1
 0 460 l 1
 -55 460 l 1
275 405 m 1
 275 460 l 1
 495 460 l 1
 495 405 l 1
 275 405 l 1
-55 405 m 1
 -55 460 l 1
 165 460 l 1
 165 405 l 1
 -55 405 l 1
110 -35 m 1
 110 405 l 1
 165 405 l 1
 165 -35 l 1
 110 -35 l 1
275 -35 m 1
 275 405 l 1
 330 405 l 1
 330 -35 l 1
 275 -35 l 1
110 -90 m 1xbf
 110 -35 l 1
 330 -35 l 1
 330 -90 l 1
 110 -90 l 1xbf
EndSplineSet
Validated: 5
EndChar

StartChar: u
Encoding: 117 117 117
Width: 440
Flags: W
HStem: -90 55<0 385> 625 55<-55 440>
VStem: -55 55<-90 625> 165 55<185 625> 385 55<-90 625>
CounterMasks: 1 38
LayerCount: 2
Fore
SplineSet
-55 625 m 1
 -55 680 l 1
 440 680 l 1
 440 625 l 1
 -55 625 l 1
385 -90 m 1
 385 625 l 1
 440 625 l 1
 440 -90 l 1
 385 -90 l 1
-55 -90 m 1
 -55 625 l 1
 0 625 l 1
 0 -90 l 1
 -55 -90 l 1
0 -90 m 1
 0 -35 l 1
 385 -35 l 1
 385 -90 l 1
 0 -90 l 1
165 185 m 1
 165 625 l 1
 220 625 l 1
 220 185 l 1
 165 185 l 1
EndSplineSet
Validated: 5
EndChar

StartChar: v
Encoding: 118 118 118
Width: 440
Flags: W
HStem: -90 55<55 330> -35 55<55 110 275 330> 625 55<-55 440>
VStem: -55 55<130 625> 0 110<-35 20> 0 55<20 185> 165 55<240 625> 275 110<-35 20> 330 55<20 185> 385 55<130 625>
LayerCount: 2
Fore
SplineSet
-55 625 m 1x3240
 -55 680 l 1
 440 680 l 1
 440 625 l 1
 -55 625 l 1x3240
385 130 m 1x2280
 385 625 l 1
 440 625 l 1
 440 130 l 1x2240
 385 130 l 1x2280
-55 130 m 1x32
 -55 625 l 1
 0 625 l 1
 0 130 l 1
 -55 130 l 1x32
55 -90 m 1xa680
 55 -35 l 1
 330 -35 l 1
 330 -90 l 1
 55 -90 l 1xa680
275 -35 m 1xa3
 275 20 l 1x63
 330 20 l 1x6280
 330 -35 l 1xa280
 275 -35 l 1xa3
55 -35 m 1xa6
 55 20 l 1x66
 110 20 l 1x6a
 110 -35 l 1xaa
 55 -35 l 1xa6
0 -35 m 1x6a
 0 185 l 1x72
 55 185 l 1
 55 -35 l 1xa6
 0 -35 l 1x6a
330 -35 m 1xa280
 330 185 l 1
 385 185 l 1xa280
 385 -35 l 1x63
 330 -35 l 1xa280
165 240 m 1
 165 625 l 1
 220 625 l 1
 220 240 l 1
 165 240 l 1
EndSplineSet
Validated: 5
EndChar

StartChar: w
Encoding: 119 119 119
Width: 660
Flags: W
HStem: -90 55<-55 605> 625 55<-55 660>
VStem: -55 55<-35 625> 165 55<185 625> 385 55<185 625> 605 55<-35 625>
LayerCount: 2
Fore
SplineSet
-55 625 m 1
 -55 680 l 1
 660 680 l 1
 660 625 l 1
 -55 625 l 1
605 -35 m 1
 605 625 l 1
 660 625 l 1
 660 -35 l 1
 605 -35 l 1
-55 -90 m 1
 -55 -35 l 1
 660 -35 l 1
 660 -90 l 1
 -55 -90 l 1
-55 -35 m 1
 -55 625 l 1
 0 625 l 1
 0 -35 l 1
 -55 -35 l 1
165 185 m 1
 165 625 l 1
 220 625 l 1
 220 185 l 1
 165 185 l 1
385 185 m 1
 385 625 l 1
 440 625 l 1
 440 185 l 1
 385 185 l 1
EndSplineSet
Validated: 5
EndChar

StartChar: x
Encoding: 120 120 120
Width: 440
Flags: W
HStem: -90 55<0 112 275 385> 130 55<165 220> 295 55<0 55 330 385> 405 55<165 220> 625 55<0 110 275 385>
VStem: -55 110<295 350> -55 55<-90 295 350 625> 110 110<405 460> 110 55<-90 -89 -35 185 460 625> 110 2<-89 -35> 165 110<130 185> 220 55<-90 130 405 625> 275 110<-90 -35> 330 55<295 350>
LayerCount: 2
Fore
SplineSet
-55 -90 m 1xfa
 -55 680 l 1
 0 680 l 1
 0 -90 l 1
 -55 -90 l 1xfa
0 625 m 1
 0 680 l 1
 110 680 l 1xfa40
 110 625 l 1xf880
 0 625 l 1
110 405 m 1xf9
 110 680 l 1
 165 680 l 1
 165 405 l 1xf860
 110 405 l 1xf9
165 405 m 1
 165 460 l 1xf880
 220 460 l 1
 220 405 l 1xf9
 165 405 l 1
220 405 m 1xf9
 220 680 l 1xf810
 275 680 l 1xf808
 275 405 l 1xf810
 220 405 l 1xf9
275 625 m 1
 275 680 l 1xf808
 385 680 l 1
 385 625 l 1xf804
 275 625 l 1
385 -90 m 1
 385 680 l 1xf804
 440 680 l 1
 440 -90 l 1
 385 -90 l 1
275 -90 m 1xf810
 275 -35 l 1xf810
 385 -35 l 1
 385 -90 l 1xf808
 275 -90 l 1xf810
0 -89 m 1xfa40
 0 -35 l 1
 112 -35 l 1
 112 -89 l 1
 0 -89 l 1xfa40
110 -90 m 1xf880
 110 185 l 1
 165 185 l 1
 165 -90 l 1
 110 -90 l 1xf880
165 130 m 1
 165 185 l 1
 220 185 l 1
 220 130 l 1xf890
 165 130 l 1
220 -90 m 1
 220 185 l 1xf810
 275 185 l 1xf820
 275 -90 l 1
 220 -90 l 1
330 295 m 1xf804
 330 350 l 1
 385 350 l 1
 385 295 l 1
 330 295 l 1xf804
0 295 m 1xfa
 0 350 l 1xfa
 55 350 l 1
 55 295 l 1xfc
 0 295 l 1xfa
EndSplineSet
Validated: 5
EndChar

StartChar: y
Encoding: 121 121 121
Width: 440
Flags: W
HStem: -90 56<0 385> 186 55<165 220> 241 55<0 220> 626 54<0 385>
VStem: 165 55<186 241 406 626> 385 55<-90 680>
LayerCount: 2
Fore
SplineSet
-55 -90 m 5x9c
 -55 680 l 5
 0 680 l 5
 0 -90 l 5
 -55 -90 l 5x9c
385 -90 m 5
 385 680 l 5
 440 680 l 5
 440 -90 l 5
 385 -90 l 5
0 626 m 5
 0 680 l 5
 385 680 l 5
 385 626 l 5
 0 626 l 5
0 -90 m 5
 0 -34 l 5
 385 -34 l 5
 385 -90 l 5
 0 -90 l 5
0 241 m 5xbc
 0 296 l 5
 220 296 l 5xbc
 220 241 l 5xdc
 0 241 l 5xbc
165 186 m 5xdc
 165 241 l 5
 220 241 l 5
 220 186 l 5
 165 186 l 5xdc
165 406 m 5
 165 626 l 5
 220 626 l 5
 220 406 l 5
 165 406 l 5
EndSplineSet
Validated: 5
EndChar

StartChar: z
Encoding: 122 122 122
Width: 440
Flags: W
HStem: -90 55<0 385> 130 55<165 385> 350 55<0 220> 625 55<0 385>
VStem: 385 55<-35 680>
LayerCount: 2
Fore
SplineSet
-55 -90 m 1
 -55 680 l 1
 0 680 l 1
 0 -90 l 1
 -55 -90 l 1
0 -90 m 1
 0 -35 l 1
 385 -35 l 1
 385 -90 l 1
 0 -90 l 1
385 -90 m 1
 385 680 l 1
 440 680 l 1
 440 -90 l 1
 385 -90 l 1
0 625 m 1
 0 680 l 1
 385 680 l 1
 385 625 l 1
 0 625 l 1
0 350 m 1
 0 405 l 1
 220 405 l 1
 220 350 l 1
 0 350 l 1
165 130 m 1
 165 185 l 1
 385 185 l 1
 385 130 l 1
 165 130 l 1
EndSplineSet
Validated: 5
EndChar

StartChar: asciitilde
Encoding: 126 126 126
Width: 440
Flags: W
HStem: 405 110<110 165 220 330> 515 110<220 275> 625 55<55 440>
VStem: 55 110<460 515> 55 55<515 625> 220 110<460 515> 220 55<515 625> 385 55<460 625>
LayerCount: 2
Fore
SplineSet
55 625 m 1x29
 55 680 l 1
 440 680 l 1
 440 625 l 1
 55 625 l 1x29
220 515 m 1x85
 220 625 l 1
 275 625 l 1x43
 275 515 l 1x83
 220 515 l 1x85
55 460 m 1x31
 55 625 l 1
 110 625 l 1
 110 460 l 1x29
 55 460 l 1x31
385 460 m 1
 385 625 l 1
 440 625 l 1
 440 460 l 1
 385 460 l 1
110 460 m 1
 110 515 l 1x89
 165 515 l 1
 165 460 l 1x91
 110 460 l 1
220 460 m 1x85
 220 515 l 1
 330 515 l 1
 330 460 l 1
 220 460 l 1x85
110 405 m 1x89
 110 460 l 1
 440 460 l 1
 440 405 l 1
 110 405 l 1x89
EndSplineSet
Validated: 5
EndChar

